<svg width="1511" height="249" viewBox="0 0 1511 249" fill="none" xmlns="http://www.w3.org/2000/svg">
<g clip-path="url(#clip0_471_8742)">
<path d="M263.421 0H115.275V49.4271H65.7867C48.3445 49.4453 31.622 56.3832 19.2885 68.7184C6.95507 81.0536 0.0181657 97.7785 0 115.223L0 181.111C0.0181603 198.556 6.9547 215.282 19.2878 227.619C31.621 239.957 48.3435 246.897 65.7867 246.918H246.872V181.019H263.421C272.178 181.031 280.572 184.516 286.764 190.708C292.956 196.901 296.44 205.297 296.452 214.054V246.998H329.219V65.8075C329.198 48.3607 322.259 31.6347 309.924 19.298C297.589 6.96126 280.865 0.0211898 263.421 0ZM214.104 214.146H65.7867C57.0312 214.134 48.6379 210.649 42.4479 204.456C36.2579 198.263 32.7766 189.867 32.7675 181.111V115.223C32.7766 106.467 36.2583 98.073 42.4486 91.8818C48.639 85.6906 57.0322 82.2084 65.7867 82.1993H115.275V115.223C115.297 132.669 122.236 149.394 134.571 161.729C146.907 174.063 163.63 181.001 181.073 181.019H214.104V214.146ZM296.452 157.158C286.427 151.31 275.027 148.234 263.421 148.247H181.073C172.319 148.238 163.926 144.756 157.735 138.564C151.545 132.373 148.063 123.979 148.054 115.223V32.7836H263.421C272.177 32.7927 280.571 36.2745 286.763 42.4654C292.955 48.6563 296.44 57.0507 296.452 65.8075V157.158Z" fill="#35D7B8"/>
<path d="M252.544 123.459C263.914 123.459 273.131 114.241 273.131 102.869C273.131 91.4977 263.914 82.2793 252.544 82.2793C241.175 82.2793 231.958 91.4977 231.958 102.869C231.958 114.241 241.175 123.459 252.544 123.459Z" fill="#35D7B8"/>
<path d="M526.522 162.248V246.895H494.91V227.312C489.42 240.375 474.266 249.046 455.463 249.046C429.329 249.046 411.567 232.322 411.567 209.582C411.567 183.982 431.422 168.036 460.941 168.036H485.245C491.776 168.036 494.91 164.387 494.91 159.16C494.91 146.348 484.982 137.209 467.998 137.209C451.014 137.209 440.823 147.915 440.309 159.674H411.567C413.134 133.548 435.345 113.164 469.565 113.164C503.007 113.118 526.522 132.461 526.522 162.248ZM494.91 191.245V189.164H465.39C451.769 189.164 442.619 196.748 442.619 208.186C442.619 218.378 450.979 225.173 463 225.173C483.152 225.219 494.91 211.103 494.91 191.245Z" fill="#0E1115"/>
<path d="M553.17 115.211H585.297V135.595C592.617 121.217 607.508 113.118 626.323 113.118C656.059 113.118 675.434 134.543 675.434 165.382V246.907H643.307V172.177C643.307 154.149 632.327 141.601 615.858 141.601C597.833 141.601 585.286 155.716 585.286 175.048V246.907H553.17V115.211Z" fill="#0E1115"/>
<path d="M826.176 203.004C821.212 230.972 796.656 249 764.266 249C721.148 249 697.119 215.027 697.119 180.539C697.119 145.787 718.54 113.118 761.647 113.118C805.806 113.118 825.695 145.261 825.695 176.615C825.695 181.053 825.432 184.977 825.169 187.596H727.953C730.309 208.758 743.897 222.347 764.278 222.347C780.736 222.347 791.441 215.553 794.838 203.004H826.176ZM728.731 166.4H793.523C792.219 149.677 780.724 137.14 761.647 137.14C743.622 137.163 732.128 146.565 728.731 166.423V166.4Z" fill="#0E1115"/>
<path d="M840.804 181.053C840.804 143.431 866.675 113.118 907.689 113.118C940.857 113.118 967.78 132.976 970.593 163.289H938.786C936.43 150.226 923.632 140.823 908.478 140.823C886.267 140.823 874.246 158.061 874.246 181.053C874.246 204.045 886.53 221.295 908.993 221.295C924.147 221.295 935.904 212.682 939.038 199.561H971.44C967.254 228.307 941.703 248.954 907.689 248.954C866.675 249 840.804 218.687 840.804 181.053Z" fill="#0E1115"/>
<path d="M985.016 181.053C985.016 140.823 1008.27 113.118 1047.2 113.118C1064.45 113.118 1078.29 120.439 1085.87 131.157V74.1006H1117.74V246.907H1085.87V230.446C1078.29 241.885 1063.66 249 1047.73 249C1008.27 249 985.016 221.295 985.016 181.053ZM1087.95 181.053C1087.95 156.757 1073.84 140.823 1052.41 140.823C1030.99 140.823 1016.89 156.712 1016.89 181.053C1016.89 205.395 1031 221.295 1052.43 221.295C1073.85 221.295 1087.96 205.361 1087.96 181.053H1087.95Z" fill="#0E1115"/>
<path d="M1141.25 181.053C1141.25 141.864 1169.99 113.118 1210.23 113.118C1250.2 113.118 1278.94 141.864 1278.94 181.053C1278.94 220.243 1250.2 249 1210.23 249C1170.02 249 1141.25 220.254 1141.25 181.053ZM1246.54 181.053C1246.54 157.283 1231.91 140.823 1210.23 140.823C1188.28 140.823 1173.63 157.283 1173.63 181.053C1173.63 204.823 1188.25 221.295 1210.23 221.295C1231.91 221.295 1246.54 204.835 1246.54 181.053Z" fill="#0E1115"/>
<path d="M1334.65 74.1006V115.212H1371.25V142.127H1334.65V199.607C1334.65 212.933 1341.71 219.728 1353.73 219.728H1371.23V246.907H1350.07C1321.33 246.907 1302.52 230.183 1302.52 200.923V74.1006H1334.65Z" fill="#0E1115"/>
<path d="M1511 203.004C1506.04 230.972 1481.48 249 1449.09 249C1405.97 249 1381.94 215.027 1381.94 180.539C1381.94 145.787 1403.36 113.118 1446.47 113.118C1490.63 113.118 1510.52 145.261 1510.52 176.615C1510.52 181.053 1510.26 184.977 1509.99 187.596H1412.78C1415.13 208.758 1428.72 222.347 1449.1 222.347C1465.56 222.347 1476.27 215.553 1479.66 203.004H1511ZM1413.56 166.4H1478.35C1477.04 149.677 1465.55 137.14 1446.47 137.14C1428.5 137.163 1416.95 146.565 1413.56 166.423V166.4Z" fill="#0E1115"/>
</g>
<defs>
<clipPath id="clip0_471_8742">
<rect width="1511" height="249" fill="white"/>
</clipPath>
</defs>
</svg>
