<svg width="214" height="30" viewBox="0 0 214 30" fill="none" xmlns="http://www.w3.org/2000/svg">
<g clip-path="url(#clip0_12_518)">
<path d="M43.0811 26.9922V4.19615H46.2394V26.9922H43.0811ZM44.937 16.8335V14.0008H50.928C52.1002 14.0008 53.0281 13.6874 53.7119 13.0566C54.3957 12.4257 54.7375 11.5588 54.7375 10.4517C54.7375 9.34471 54.3468 8.41268 53.5654 7.78183C52.7839 7.15098 51.6891 6.8498 50.2768 6.87015H44.937V4.23278L50.4071 4.16766C51.9699 4.16766 53.309 4.41186 54.4282 4.90026C55.5475 5.38866 56.4144 6.10092 57.033 7.03295C57.6517 7.96498 57.961 9.11679 57.961 10.4843C57.961 11.7012 57.6191 12.7757 56.9353 13.7078C56.2516 14.6398 55.2789 15.3683 54.0212 15.8893C52.7636 16.4102 51.274 16.6707 49.5605 16.6707L44.937 16.8335ZM45.0021 26.9922V24.0944H51.1559C52.5031 24.0944 53.5491 23.7729 54.298 23.1339C55.0469 22.4949 55.4213 21.632 55.4213 20.5454C55.4213 19.3284 54.994 18.3842 54.1352 17.7126C53.2764 17.0411 52.0798 16.7155 50.5373 16.7358H45.0021V14.0985L48.9419 14.131C50.9402 14.131 52.67 14.3712 54.1352 14.8474C55.6004 15.3235 56.7237 16.0521 57.5051 17.0289C58.2866 18.0057 58.6773 19.2307 58.6773 20.7082C58.6773 22.0309 58.3802 23.1664 57.7819 24.1107C57.1836 25.0549 56.3452 25.7712 55.2585 26.2596C54.1718 26.748 52.8694 26.9922 51.3513 26.9922H45.0021Z" fill="#1E2025"/>
<path d="M60.6025 26.9922V10.7122H63.6957V26.9963H60.6025V26.9922ZM62.491 18.2336C62.491 16.4753 62.8288 15.0427 63.5004 13.9357C64.1719 12.8286 65.0429 12.0024 66.1052 11.4611C67.1675 10.9198 68.2867 10.6471 69.4589 10.6471V13.5775C68.4821 13.5775 67.5541 13.724 66.675 14.0171C65.7959 14.3101 65.0795 14.7863 64.526 15.4497C63.9725 16.1131 63.6957 17.0085 63.6957 18.1359L62.491 18.2336Z" fill="#1E2025"/>
<path d="M76.7887 27.383C75.3113 27.383 74.0252 27.0248 72.9304 26.3085C71.8356 25.5922 70.9768 24.595 70.3581 23.313C69.7395 22.0309 69.4302 20.5454 69.4302 18.8523C69.4302 17.1591 69.7395 15.6451 70.3581 14.3753C70.9768 13.1054 71.8356 12.1123 72.9304 11.396C74.0252 10.6797 75.3113 10.3215 76.7887 10.3215C78.1563 10.3215 79.3447 10.6797 80.3541 11.396C81.3634 12.1123 82.1408 13.1054 82.6821 14.3753C83.2234 15.6451 83.4961 17.1388 83.4961 18.8523C83.4961 20.5657 83.2234 22.035 82.6821 23.313C82.1408 24.595 81.3634 25.5922 80.3541 26.3085C79.3447 27.0248 78.1563 27.383 76.7887 27.383ZM77.5051 24.5828C78.4167 24.5828 79.2185 24.3386 79.9145 23.8502C80.6105 23.3618 81.1518 22.6903 81.5425 21.8315C81.9332 20.9727 82.1286 19.9797 82.1286 18.8523C82.1286 17.7249 81.9332 16.7318 81.5425 15.873C81.1518 15.0142 80.6105 14.3427 79.9145 13.8543C79.2185 13.3659 78.4045 13.1217 77.4725 13.1217C76.5405 13.1217 75.6695 13.3659 74.9328 13.8543C74.1962 14.3427 73.6182 15.0142 73.2071 15.873C72.7961 16.7318 72.5885 17.7249 72.5885 18.8523C72.5885 19.9797 72.8001 20.9727 73.2234 21.8315C73.6467 22.6903 74.2287 23.3618 74.9654 23.8502C75.7021 24.3386 76.5486 24.5828 77.5051 24.5828ZM82.2588 26.9923L82.1286 23.9642V10.7123H85.1892V26.9963H82.2588V26.9923Z" fill="#1E2025"/>
<path d="M89.6176 7.25679C89.117 7.25679 88.6856 7.0655 88.3152 6.68699C87.9449 6.30848 87.7617 5.86892 87.7617 5.36831C87.7617 4.8677 87.9449 4.40779 88.3152 4.04963C88.6856 3.69147 89.117 3.51239 89.6176 3.51239C90.1183 3.51239 90.5782 3.69147 90.9363 4.04963C91.2945 4.40779 91.4736 4.84735 91.4736 5.36831C91.4736 5.88927 91.2945 6.30848 90.9363 6.68699C90.5782 7.0655 90.1386 7.25679 89.6176 7.25679ZM88.0548 26.9922L88.1199 10.7082H91.1805L91.148 26.9922H88.0548Z" fill="#1E2025"/>
<path d="M94.0454 26.9923V10.7123H96.9433L97.1386 13.7078V26.9923H94.0454ZM105.311 18.6569C105.311 17.1795 105.144 16.0562 104.806 15.2869C104.469 14.5177 104.005 13.9805 103.406 13.6752C102.808 13.37 102.12 13.2072 101.339 13.1868C100.016 13.1868 98.9823 13.6549 98.2457 14.5869C97.509 15.5189 97.1386 16.8335 97.1386 18.5267H95.8036C95.8036 16.8132 96.0519 15.3398 96.5525 14.1148C97.0531 12.8897 97.7735 11.9495 98.7178 11.2983C99.662 10.6471 100.798 10.3215 102.12 10.3215C104.074 10.3215 105.608 10.9239 106.728 12.1286C107.847 13.3333 108.404 15.1852 108.404 17.6801L105.311 18.6569ZM105.311 26.9923V18.6569L108.404 17.6801V26.9923H105.311Z" fill="#1E2025"/>
<path d="M109.87 13.3496V10.7122H122.995V13.024L121.009 13.3496H109.874H109.87ZM112.084 26.4062L109.87 24.6154L120.875 11.2006L122.991 13.024L112.084 26.4062ZM109.87 26.9922V24.6154L111.856 24.3549H123.056V26.9922H109.87Z" fill="#1E2025"/>
<path d="M125.698 26.9923V4.19617H128.889V26.9923H125.698ZM128.368 16.7358V13.8054H142.174V16.7358H128.368ZM141.164 26.9923V4.19617H144.355V26.9923H141.164Z" fill="#1E2025"/>
<path d="M155.104 27.383C153.521 27.383 152.121 27.0208 150.904 26.2922C149.687 25.5637 148.734 24.5625 148.039 23.2804C147.343 21.9984 146.997 20.525 146.997 18.8523C146.997 17.1795 147.343 15.7061 148.039 14.4241C148.734 13.142 149.695 12.1408 150.92 11.4123C152.145 10.6838 153.553 10.3215 155.137 10.3215C156.614 10.3215 157.92 10.696 159.06 11.4449C160.2 12.1937 161.091 13.256 161.73 14.6357C162.369 16.0155 162.691 17.6394 162.691 19.5035H159.597C159.597 18.1156 159.422 16.9434 159.076 15.987C158.73 15.0305 158.214 14.3101 157.53 13.8217C156.846 13.3333 156.016 13.0891 155.039 13.0891C154.062 13.0891 153.211 13.3211 152.483 13.7892C151.754 14.2572 151.193 14.9166 150.79 15.7753C150.387 16.6341 150.187 17.6801 150.187 18.9174C150.187 20.0692 150.415 21.0623 150.871 21.8966C151.327 22.731 151.942 23.3822 152.711 23.8502C153.48 24.3183 154.355 24.5503 155.332 24.5503C156.394 24.5503 157.281 24.302 157.986 23.8014C158.69 23.3008 159.251 22.6618 159.662 21.8803L162.43 23.1502C161.974 23.9967 161.404 24.7416 160.721 25.3805C160.037 26.0195 159.223 26.5161 158.279 26.862C157.334 27.208 156.276 27.383 155.104 27.383ZM149.015 19.5035L149.048 16.9638H160.965V19.5035H149.015Z" fill="#1E2025"/>
<path d="M170.7 27.383C169.222 27.383 167.936 27.0248 166.842 26.3085C165.747 25.5922 164.888 24.595 164.269 23.313C163.651 22.0309 163.341 20.5454 163.341 18.8523C163.341 17.1591 163.651 15.6451 164.269 14.3753C164.888 13.1054 165.747 12.1123 166.842 11.396C167.936 10.6797 169.222 10.3215 170.7 10.3215C172.067 10.3215 173.256 10.6797 174.265 11.396C175.275 12.1123 176.052 13.1054 176.593 14.3753C177.135 15.6451 177.407 17.1388 177.407 18.8523C177.407 20.5657 177.135 22.035 176.593 23.313C176.052 24.595 175.275 25.5922 174.265 26.3085C173.256 27.0248 172.067 27.383 170.7 27.383ZM171.416 24.5828C172.328 24.5828 173.13 24.3386 173.826 23.8502C174.522 23.3618 175.063 22.6903 175.454 21.8315C175.844 20.9727 176.04 19.9797 176.04 18.8523C176.04 17.7249 175.844 16.7318 175.454 15.873C175.063 15.0142 174.522 14.3427 173.826 13.8543C173.13 13.3659 172.316 13.1217 171.384 13.1217C170.452 13.1217 169.581 13.3659 168.844 13.8543C168.107 14.3427 167.529 15.0142 167.118 15.873C166.707 16.7318 166.5 17.7249 166.5 18.8523C166.5 19.9797 166.711 20.9727 167.135 21.8315C167.558 22.6903 168.14 23.3618 168.877 23.8502C169.613 24.3386 170.46 24.5828 171.416 24.5828ZM176.17 26.9923L176.04 23.9642V10.7123H179.1V26.9963H176.17V26.9923Z" fill="#1E2025"/>
<path d="M181.774 26.9923L181.84 4.19617H184.9L184.868 26.9923H181.774Z" fill="#1E2025"/>
<path d="M186.333 13.3821V10.7122H196.817V13.3821H186.333ZM194.213 27.383C192.585 27.383 191.327 26.9637 190.436 26.1294C189.544 25.295 189.101 24.0944 189.101 22.5315V5.62878H192.194V22.0757C192.194 22.8775 192.393 23.492 192.796 23.9153C193.199 24.3386 193.777 24.5502 194.538 24.5502C194.754 24.5502 194.994 24.5055 195.254 24.42C195.515 24.3345 195.828 24.1595 196.199 23.899L197.371 26.3085C196.805 26.6788 196.268 26.9475 195.759 27.1225C195.25 27.2975 194.733 27.383 194.213 27.383Z" fill="#1E2025"/>
<path d="M198.738 26.9923L198.706 3.83801H201.799V26.9923H198.738ZM210.004 18.6569C210.004 17.1795 209.829 16.0562 209.483 15.2869C209.137 14.5177 208.665 13.9805 208.067 13.6752C207.468 13.37 206.793 13.2072 206.032 13.1868C204.684 13.1868 203.642 13.6549 202.906 14.5869C202.169 15.5189 201.799 16.8335 201.799 18.5267H200.496C200.496 16.8132 200.745 15.3398 201.245 14.1148C201.746 12.8897 202.466 11.9495 203.41 11.2983C204.355 10.6471 205.478 10.3215 206.78 10.3215C208.754 10.3215 210.301 10.9239 211.42 12.1286C212.54 13.3333 213.085 15.1852 213.065 17.6801L210.004 18.6569ZM210.004 26.9923V18.6569L213.065 17.6801V26.9923H210.004Z" fill="#1E2025"/>
<path d="M15.059 22.6658V30H0V22.6658C0 18.5103 3.36996 15.1404 7.52951 15.1404C11.6891 15.1404 15.059 18.5103 15.059 22.6699V22.6658Z" fill="#1E2025"/>
<path d="M7.52951 15.1404C11.6879 15.1404 15.059 11.7693 15.059 7.61087C15.059 3.45244 11.6879 0.0813599 7.52951 0.0813599C3.37108 0.0813599 0 3.45244 0 7.61087C0 11.7693 3.37108 15.1404 7.52951 15.1404Z" fill="#1E2025"/>
<path d="M22.5925 15.1404C26.7509 15.1404 30.122 11.7693 30.122 7.61087C30.122 3.45244 26.7509 0.0813599 22.5925 0.0813599C18.4341 0.0813599 15.063 3.45244 15.063 7.61087C15.063 11.7693 18.4341 15.1404 22.5925 15.1404Z" fill="#BCF16D"/>
<path d="M30.122 22.6659V30H15.063V22.6659C15.063 18.5063 18.433 15.1364 22.5925 15.1364C26.752 15.1364 30.122 18.5063 30.122 22.6659Z" fill="#1E2025"/>
</g>
<defs>
<clipPath id="clip0_12_518">
<rect width="213.069" height="30" fill="white"/>
</clipPath>
</defs>
</svg>
