<svg width="112" height="41" viewBox="0 0 112 41" fill="none" xmlns="http://www.w3.org/2000/svg">
<g clip-path="url(#clip0_173_241)">
<path d="M21.815 20.626L20.7201 21.519C20.5573 21.6531 20.3533 21.7271 20.1423 21.7284C19.9314 21.7298 19.7264 21.6584 19.5619 21.5264L18.3064 20.5347C18.2799 21.9405 18.2519 24.1494 18.3152 25.1028C18.4316 26.8549 19.052 28.1222 20.1587 28.8781C21.451 27.9704 21.7796 26.4511 21.7664 25.116C21.759 24.1715 21.7914 22.0215 21.815 20.626Z" fill="#80C7BC"/>
<path d="M26.7324 16.2818C26.7088 16.2671 26.6823 16.2494 26.6572 16.2302L20.1351 11.4116L13.4789 16.2494C8.70892 19.5517 10.408 24.5884 10.4979 24.8404C12.664 29.9656 17.2159 29.7033 17.409 29.6826H17.4296C17.9149 29.6658 18.3969 29.5947 18.8664 29.4704C17.9144 28.5863 17.1717 27.2247 17.0347 25.1882C16.9551 23.9946 17.0111 21.0135 17.0347 19.7875C17.0201 19.608 17.0607 19.4284 17.151 19.2727C17.2413 19.1169 17.3769 18.9924 17.5399 18.9159C17.7028 18.8393 17.8852 18.8142 18.0627 18.8441C18.2403 18.874 18.4045 18.9574 18.5333 19.0831L20.1277 20.343L21.6013 19.145C21.7383 19.0337 21.9043 18.9638 22.0796 18.9437C22.255 18.9236 22.4325 18.9541 22.5911 19.0315C22.7497 19.109 22.8829 19.2302 22.9749 19.3808C23.0669 19.5315 23.1139 19.7053 23.1103 19.8818C23.0882 21.0769 23.0396 23.9769 23.0469 25.1086C23.0543 26.0694 22.8996 27.4664 22.0965 28.6777C21.9086 28.9646 21.6897 29.23 21.4437 29.469C21.8891 29.5961 22.351 29.6562 22.8141 29.6473H22.8583C27.4927 29.6473 29.0827 26.0252 29.1476 25.8705C30.297 23.2932 30.2763 20.9369 29.0931 18.8562C28.5086 17.8323 27.7019 16.9526 26.7324 16.2818Z" fill="#80C7BC"/>
<path d="M38.2263 20.0511C38.1969 20.001 38.219 19.9465 38.2131 19.8949V19.6886C38.2148 19.0946 38.1745 18.5012 38.0922 17.9129C37.946 16.9816 37.7232 16.0639 37.4262 15.1691C37.1076 14.2159 36.6939 13.2971 36.1913 12.4268C35.7941 11.7316 35.319 11.084 34.7752 10.4964C34.1077 9.79053 33.3959 9.12888 32.7284 8.42303C32.3924 8.06642 32.0402 7.72455 31.6807 7.39152C31.1695 6.91343 30.6211 6.47685 30.0406 6.08592C29.3922 5.65037 28.7097 5.26795 27.9996 4.94242C27.3609 4.6446 26.7073 4.37998 26.0412 4.14963C24.8202 3.73102 23.5702 3.40204 22.3013 3.16528C21.6426 3.04297 20.975 2.93982 20.3119 2.87056C19.6871 2.8072 19.0579 2.80573 18.4316 2.79836H17.5563C17.2749 2.78804 16.9949 2.81015 16.7134 2.81604C16.4673 2.81604 16.2183 2.81604 15.9766 2.84698C15.3562 2.90761 14.7401 3.00603 14.1317 3.1417C13.0322 3.37972 11.969 3.76172 10.9694 4.27783C10.074 4.74722 9.2576 5.35383 8.54976 6.07562C7.7496 6.89198 6.90524 7.66562 6.15224 8.52619C5.43223 9.36081 4.84478 10.3011 4.41045 11.3142C3.96447 12.3562 3.60661 13.4337 3.34063 14.5355C3.04027 15.7411 2.80806 16.9627 2.6451 18.1944C2.50667 19.1708 2.43528 20.1555 2.43143 21.1416C2.42455 21.7477 2.42455 22.3533 2.43143 22.9585C2.43143 23.1353 2.44322 23.3122 2.44322 23.4875C2.45293 24.1865 2.51748 24.8837 2.63626 25.5726C2.7924 26.5991 3.05159 27.6072 3.40989 28.5817C3.68937 29.3782 4.06918 30.1358 4.54013 30.8363C5.28724 31.9046 6.05645 32.9583 6.88903 33.9618C7.33727 34.4996 7.83616 34.993 8.37882 35.4354C9.43699 36.2901 10.6412 36.9461 11.9331 37.3717C12.8062 37.6599 13.6971 37.8908 14.6003 38.0628C15.2118 38.1836 15.8234 38.3059 16.4408 38.3899C16.9991 38.4445 17.5598 38.471 18.1207 38.4695H18.5628C18.6588 38.4622 18.7553 38.4666 18.8501 38.4827H19.5088C19.5954 38.4673 19.6835 38.4628 19.7711 38.4695H20.2058C20.3252 38.4695 20.4431 38.4577 20.561 38.4562C21.1648 38.4501 21.7677 38.4063 22.3661 38.3251C23.5407 38.1643 24.6989 37.9011 25.8276 37.5382C26.6802 37.2652 27.5068 36.9166 28.2973 36.4963C28.7968 36.2414 29.2744 35.9457 29.7252 35.6122C30.5357 34.9889 31.3579 34.3818 32.1743 33.7628C32.6391 33.4157 33.0857 33.0448 33.5123 32.6518C33.9978 32.2024 34.454 31.7225 34.8783 31.215C35.6575 30.271 36.3021 29.2236 36.794 28.1028C37.2765 26.9779 37.6429 25.8068 37.8874 24.6075C38.0804 23.7041 38.2499 22.7993 38.219 21.8695V21.6618C38.2115 21.5927 38.216 21.5229 38.2322 21.4554L38.2263 20.0511ZM30.3294 26.3713C30.21 26.6513 28.3076 30.9159 22.873 30.9262C21.9374 30.9608 21.0077 30.7645 20.1661 30.3544C19.3252 30.7355 18.4159 30.9426 17.493 30.963C17.4576 30.963 17.3662 30.963 17.2262 30.963C16.2404 30.9515 15.2645 30.7648 14.3439 30.4119C12.7745 29.8225 10.6275 28.4476 9.30866 25.3162L9.29982 25.2927C8.92183 24.1456 8.7741 22.9353 8.86511 21.731C8.99773 19.8802 9.77726 17.2439 12.7362 15.1956L19.6267 10.1855C19.7759 10.0747 19.9567 10.0149 20.1425 10.0149C20.3282 10.0149 20.5091 10.0747 20.6582 10.1855L27.4249 15.1838C27.6769 15.3651 33.5094 19.2215 30.3294 26.3713Z" fill="#80C7BC"/>
<path opacity="0.43" d="M21.815 20.626L20.7201 21.519C20.5573 21.6531 20.3533 21.7271 20.1423 21.7284C19.9314 21.7298 19.7264 21.6584 19.5619 21.5264L18.3064 20.5347C18.2799 21.9405 18.2519 24.1494 18.3152 25.1028C18.4316 26.8549 19.052 28.1222 20.1587 28.8781C21.451 27.9704 21.7796 26.4511 21.7664 25.116C21.759 24.1715 21.7914 22.0215 21.815 20.626Z" fill="#80C7BC"/>
<path opacity="0.43" d="M26.7324 16.2818C26.7088 16.2671 26.6823 16.2494 26.6572 16.2302L20.1351 11.4116L13.4789 16.2494C8.70892 19.5517 10.408 24.5884 10.4979 24.8404C12.664 29.9656 17.2159 29.7033 17.409 29.6826H17.4296C17.9149 29.6658 18.3969 29.5947 18.8664 29.4704C17.9144 28.5863 17.1717 27.2247 17.0347 25.1882C16.9551 23.9946 17.0111 21.0135 17.0347 19.7875C17.0201 19.608 17.0607 19.4284 17.151 19.2727C17.2413 19.1169 17.3769 18.9924 17.5399 18.9159C17.7028 18.8393 17.8852 18.8142 18.0627 18.8441C18.2403 18.874 18.4045 18.9574 18.5333 19.0831L20.1277 20.343L21.6013 19.145C21.7383 19.0337 21.9043 18.9638 22.0796 18.9437C22.255 18.9236 22.4325 18.9541 22.5911 19.0315C22.7497 19.109 22.8829 19.2302 22.9749 19.3808C23.0669 19.5315 23.1139 19.7053 23.1103 19.8818C23.0882 21.0769 23.0396 23.9769 23.0469 25.1086C23.0543 26.0694 22.8996 27.4664 22.0965 28.6777C21.9086 28.9646 21.6897 29.23 21.4437 29.469C21.8891 29.5961 22.351 29.6562 22.8141 29.6473H22.8583C27.4927 29.6473 29.0827 26.0252 29.1476 25.8705C30.297 23.2932 30.2763 20.9369 29.0931 18.8562C28.5086 17.8323 27.7019 16.9526 26.7324 16.2818Z" fill="#80C7BC"/>
<path opacity="0.43" d="M41.3945 18.5127C41.3786 18.3841 41.3736 18.2545 41.3798 18.1251C41.3888 17.3108 41.3192 16.4976 41.172 15.6966C40.8898 14.0024 40.347 12.362 39.5629 10.8338C39.0224 9.77807 38.3226 8.81187 37.4881 7.96916C36.6039 7.08501 35.7198 6.19053 34.8223 5.30638C34.5645 5.04998 34.2933 4.80536 34.0178 4.56959C32.7567 3.51112 31.3318 2.66502 29.7989 2.06449C28.5259 1.55366 27.2129 1.14901 25.8732 0.854678C23.9779 0.410598 22.039 0.17881 20.0924 0.163574C19.6901 0.163574 19.2878 0.163563 18.8855 0.170931C18.2202 0.177038 17.5557 0.217875 16.8947 0.293251C15.2338 0.475572 13.6059 0.885624 12.0569 1.51189C10.8567 1.99345 9.73323 2.64776 8.72216 3.45409C8.06199 3.99047 7.49908 4.63296 6.87723 5.20619C6.36295 5.6851 5.87371 6.19349 5.38154 6.69746C4.85849 7.23226 4.38179 7.81051 3.95658 8.42597C3.07243 9.70357 2.44763 11.105 1.93776 12.5609C1.46868 13.9103 1.08673 15.2885 0.794261 16.6869C0.374289 18.6777 0.0500999 20.6833 0.0162074 22.7286C-0.0284308 23.908 -0.00136473 25.0891 0.0972552 26.2652C0.230649 27.6937 0.539478 29.1002 1.01677 30.4531C1.3524 31.4039 1.81912 32.3031 2.40342 33.1248C3.00071 33.947 3.60439 34.7644 4.21446 35.5768C4.70396 36.229 5.25625 36.8317 5.8634 37.3761C7.09483 38.4608 8.54083 39.2742 10.1073 39.7633C11.0705 40.0717 12.0558 40.3067 13.0545 40.4662C14.2923 40.674 15.5301 40.8876 16.793 40.8449H18.4655C19.2036 40.8497 19.9415 40.8153 20.6759 40.7417C21.8816 40.6146 23.0768 40.4019 24.2523 40.1051C25.8883 39.7036 27.4711 39.11 28.9678 38.3368C29.7384 37.9372 30.4721 37.4703 31.1605 36.9414C32.0446 36.2517 32.9406 35.5783 33.8321 34.899C34.9594 34.0481 35.9963 33.0838 36.9266 32.021C38.0182 30.7591 38.9125 29.3392 39.5791 27.8095C40.3557 26.0412 40.8419 24.183 41.2 22.2909C41.3356 21.5172 41.3933 20.7318 41.3724 19.9465C41.362 19.8903 41.3666 19.8324 41.3857 19.7785L41.3945 18.5127ZM30.3294 26.3713C30.21 26.6513 28.3076 30.9159 22.873 30.9262C21.9374 30.9608 21.0077 30.7644 20.166 30.3544C19.3252 30.7355 18.4159 30.9425 17.493 30.963C17.4576 30.963 17.3662 30.963 17.2262 30.963C16.2404 30.9515 15.2645 30.7648 14.3439 30.4119C12.7745 29.8225 10.6275 28.4476 9.30865 25.3162L9.2998 25.2926C8.92182 24.1456 8.77409 22.9353 8.8651 21.731C8.99772 19.8802 9.77725 17.2439 12.7362 15.1956L19.6267 10.1854C19.7758 10.0747 19.9567 10.0149 20.1425 10.0149C20.3282 10.0149 20.5091 10.0747 20.6582 10.1854L27.4249 15.1838C27.6769 15.3651 33.5094 19.2215 30.3294 26.3713Z" fill="#80C7BC"/>
<path d="M48.8888 28.5974C48.5315 28.5974 48.2561 28.4932 48.0626 28.2847C47.869 28.0614 47.7722 27.7562 47.7722 27.3691V18.6595C47.7722 18.2724 47.869 17.9747 48.0626 17.7662C48.2561 17.5578 48.5315 17.4536 48.8888 17.4536C49.2462 17.4536 49.5216 17.5578 49.7151 17.7662C49.9236 17.9747 50.0278 18.2724 50.0278 18.6595V27.3691C50.0278 27.7562 49.931 28.0614 49.7375 28.2847C49.5439 28.4932 49.261 28.5974 48.8888 28.5974ZM48.8888 15.131C48.4422 15.131 48.0923 15.0194 47.8392 14.7961C47.601 14.5727 47.4819 14.2601 47.4819 13.8581C47.4819 13.4412 47.601 13.1286 47.8392 12.9202C48.0923 12.6968 48.4422 12.5852 48.8888 12.5852C49.3355 12.5852 49.6779 12.6968 49.9161 12.9202C50.1692 13.1286 50.2958 13.4412 50.2958 13.8581C50.2958 14.2601 50.1692 14.5727 49.9161 14.7961C49.6779 15.0194 49.3355 15.131 48.8888 15.131ZM54.5649 28.6197C54.2225 28.6197 53.9545 28.5229 53.7609 28.3294C53.5823 28.1358 53.4929 27.8679 53.4929 27.5254V13.6571C53.4929 13.2998 53.5897 13.0318 53.7833 12.8532C53.9768 12.6596 54.2374 12.5628 54.5649 12.5628C54.8775 12.5628 55.1158 12.6224 55.2795 12.7415C55.4582 12.8457 55.6219 13.0393 55.7708 13.3221L61.6219 24.2426H60.9296L66.7583 13.3221C66.9072 13.0393 67.0635 12.8457 67.2273 12.7415C67.391 12.6224 67.6292 12.5628 67.9419 12.5628C68.2694 12.5628 68.5225 12.6596 68.7012 12.8532C68.8798 13.0318 68.9692 13.2998 68.9692 13.6571V27.5254C68.9692 27.8679 68.8798 28.1358 68.7012 28.3294C68.5374 28.5229 68.2843 28.6197 67.9419 28.6197C67.5995 28.6197 67.3389 28.5229 67.1603 28.3294C66.9816 28.1358 66.8923 27.8679 66.8923 27.5254V16.002H67.3836L62.2025 25.5825C62.0834 25.8058 61.9569 25.9696 61.8229 26.0738C61.6889 26.178 61.5028 26.2302 61.2646 26.2302C61.0263 26.2302 60.8328 26.178 60.6839 26.0738C60.535 25.9547 60.401 25.791 60.2819 25.5825L55.0562 15.9797H55.5922V27.5254C55.5922 27.8679 55.5028 28.1358 55.3242 28.3294C55.1604 28.5229 54.9073 28.6197 54.5649 28.6197ZM76.3238 28.6644C75.4454 28.6644 74.7084 28.5006 74.1129 28.1731C73.5323 27.8455 73.0931 27.3617 72.7953 26.7215C72.5124 26.0664 72.371 25.2475 72.371 24.2649V18.5479C72.371 18.1608 72.4678 17.8779 72.6613 17.6993C72.8549 17.5057 73.1303 17.4089 73.4876 17.4089C73.8449 17.4089 74.1204 17.5057 74.3139 17.6993C74.5223 17.8779 74.6266 18.1608 74.6266 18.5479V24.2873C74.6266 25.1657 74.8052 25.8133 75.1625 26.2302C75.5198 26.647 76.0856 26.8555 76.8598 26.8555C77.7084 26.8555 78.3933 26.5726 78.9143 26.0068C79.4503 25.4262 79.7183 24.6669 79.7183 23.7289V18.5479C79.7183 18.1608 79.8151 17.8779 80.0086 17.6993C80.2022 17.5057 80.485 17.4089 80.8572 17.4089C81.2146 17.4089 81.49 17.5057 81.6835 17.6993C81.8771 17.8779 81.9738 18.1608 81.9738 18.5479V27.4808C81.9738 28.2401 81.6091 28.6197 80.8796 28.6197C80.5371 28.6197 80.2692 28.5229 80.0756 28.3294C79.8821 28.121 79.7853 27.8381 79.7853 27.4808V25.5825L80.0756 26.0738C79.7778 26.9076 79.3014 27.5478 78.6463 27.9944C77.9913 28.441 77.2171 28.6644 76.3238 28.6644ZM86.3138 28.6197C85.9565 28.6197 85.6811 28.5229 85.4875 28.3294C85.294 28.121 85.1972 27.8381 85.1972 27.4808V18.5479C85.1972 18.1757 85.294 17.8928 85.4875 17.6993C85.6811 17.5057 85.949 17.4089 86.2915 17.4089C86.6488 17.4089 86.9168 17.5057 87.0954 17.6993C87.289 17.8928 87.3857 18.1757 87.3857 18.5479V20.3791L87.1401 19.8878C87.4379 19.0987 87.8994 18.4809 88.5247 18.0342C89.15 17.5876 89.9018 17.3643 90.7802 17.3643C91.6884 17.3643 92.4254 17.5801 92.9911 18.0119C93.5569 18.4437 93.944 19.1062 94.1524 19.9995H93.8398C94.1226 19.1806 94.6065 18.5404 95.2914 18.0789C95.9762 17.6025 96.7727 17.3643 97.6809 17.3643C98.5146 17.3643 99.1995 17.528 99.7355 17.8556C100.271 18.1682 100.673 18.6521 100.941 19.3072C101.209 19.9474 101.343 20.7588 101.343 21.7414V27.4808C101.343 27.8381 101.239 28.121 101.031 28.3294C100.837 28.5229 100.562 28.6197 100.204 28.6197C99.8471 28.6197 99.5717 28.5229 99.3781 28.3294C99.1846 28.121 99.0878 27.8381 99.0878 27.4808V21.853C99.0878 20.93 98.9241 20.2526 98.5965 19.8208C98.2839 19.3891 97.7628 19.1732 97.0333 19.1732C96.2144 19.1732 95.5668 19.4561 95.0904 20.0218C94.6139 20.5876 94.3757 21.3692 94.3757 22.3667V27.4808C94.3757 27.8381 94.279 28.121 94.0854 28.3294C93.8919 28.5229 93.6164 28.6197 93.2591 28.6197C92.9018 28.6197 92.6189 28.5229 92.4105 28.3294C92.2169 28.121 92.1202 27.8381 92.1202 27.4808V21.853C92.1202 20.93 91.9639 20.2526 91.6512 19.8208C91.3385 19.3891 90.8175 19.1732 90.0879 19.1732C89.2691 19.1732 88.6215 19.4561 88.145 20.0218C87.6835 20.5876 87.4527 21.3692 87.4527 22.3667V27.4808C87.4527 28.2401 87.0731 28.6197 86.3138 28.6197ZM104.921 28.4634C104.683 28.4634 104.489 28.4113 104.341 28.3071C104.192 28.1879 104.088 28.0391 104.028 27.8604C103.983 27.6669 103.983 27.4659 104.028 27.2574C104.088 27.0341 104.207 26.8257 104.385 26.6321L110.46 18.7489V19.3072H104.787C104.504 19.3072 104.288 19.2327 104.14 19.0838C103.991 18.9201 103.916 18.7042 103.916 18.4362C103.916 18.1533 103.991 17.9375 104.14 17.7886C104.288 17.6397 104.504 17.5653 104.787 17.5653H111.532C111.814 17.5653 112.038 17.6248 112.202 17.7439C112.38 17.863 112.492 18.0119 112.537 18.1906C112.596 18.3692 112.604 18.5628 112.559 18.7712C112.514 18.9796 112.403 19.1806 112.224 19.3742L106.06 27.3468V26.7438H112.023C112.618 26.7438 112.916 27.0267 112.916 27.5924C112.916 27.8604 112.834 28.0763 112.671 28.2401C112.522 28.3889 112.306 28.4634 112.023 28.4634H104.921Z" fill="black"/>
</g>
<defs>
<clipPath id="clip0_173_241">
<rect width="112" height="40.702" fill="white" transform="translate(0 0.148926)"/>
</clipPath>
</defs>
</svg>
