<svg width="196" height="38" viewBox="0 0 196 38" fill="none" xmlns="http://www.w3.org/2000/svg">
<path d="M18.8254 27.0748L24.6551 16.7871L30.4848 27.0748C31.8565 38.3913 16.4249 35.9908 18.8254 27.0748Z" fill="#001E40"/>
<path d="M13.6894 19.7294L16.8417 31.1261L5.44494 27.9738C-3.52693 20.9418 9.0822 11.7274 13.6894 19.7294Z" fill="#001E40"/>
<path d="M23.9631 14.6782L12.1921 15.8035L17.2755 5.12736C25.7587 -2.48711 32.6435 11.5305 23.9631 14.6782Z" fill="#001E40"/>
<path d="M47.6982 26.5801C48.2842 26.5801 48.7939 26.4688 49.2275 26.2461C49.6611 26.0234 49.9951 25.7129 50.2295 25.3145C50.4756 24.9043 50.5986 24.4121 50.5986 23.8379H55.7666C55.7666 25.2207 55.4092 26.4395 54.6943 27.4941C53.9912 28.5488 53.042 29.375 51.8467 29.9727C50.6514 30.5586 49.3037 30.8516 47.8037 30.8516C46.3271 30.8516 45.0381 30.6113 43.9365 30.1309C42.835 29.6387 41.915 28.9531 41.1768 28.0742C40.4385 27.1953 39.8818 26.1758 39.5068 25.0156C39.1436 23.8438 38.9619 22.5781 38.9619 21.2188V20.7617C38.9619 19.4141 39.1436 18.1543 39.5068 16.9824C39.8818 15.8105 40.4385 14.7852 41.1768 13.9062C41.915 13.0273 42.8291 12.3477 43.9189 11.8672C45.0205 11.375 46.3096 11.1289 47.7861 11.1289C49.3447 11.1289 50.7217 11.4277 51.917 12.0254C53.124 12.623 54.0674 13.4844 54.7471 14.6094C55.4268 15.7227 55.7666 17.0645 55.7666 18.6348H50.5986C50.5986 18.0254 50.4873 17.4805 50.2646 17C50.0537 16.5078 49.7256 16.1211 49.2803 15.8398C48.8467 15.5469 48.3076 15.4004 47.6631 15.4004C46.9951 15.4004 46.4443 15.5469 46.0107 15.8398C45.5889 16.1211 45.2666 16.5137 45.0439 17.0176C44.8213 17.5215 44.6689 18.0957 44.5869 18.7402C44.5049 19.373 44.4639 20.0469 44.4639 20.7617V21.2188C44.4639 21.9453 44.5049 22.6367 44.5869 23.293C44.6689 23.9375 44.8213 24.5059 45.0439 24.998C45.2783 25.4902 45.6064 25.877 46.0283 26.1582C46.4502 26.4395 47.0068 26.5801 47.6982 26.5801ZM57.7002 21.1836V20.8145C57.7002 19.4199 57.8994 18.1367 58.2979 16.9648C58.6963 15.7812 59.2822 14.7559 60.0557 13.8887C60.8291 13.0215 61.7783 12.3477 62.9033 11.8672C64.0283 11.375 65.3174 11.1289 66.7705 11.1289C68.2471 11.1289 69.5479 11.375 70.6729 11.8672C71.8096 12.3477 72.7646 13.0215 73.5381 13.8887C74.3115 14.7559 74.8975 15.7812 75.2959 16.9648C75.6943 18.1367 75.8936 19.4199 75.8936 20.8145V21.1836C75.8936 22.5664 75.6943 23.8496 75.2959 25.0332C74.8975 26.2051 74.3115 27.2305 73.5381 28.1094C72.7646 28.9766 71.8154 29.6504 70.6904 30.1309C69.5654 30.6113 68.2705 30.8516 66.8057 30.8516C65.3525 30.8516 64.0576 30.6113 62.9209 30.1309C61.7842 29.6504 60.8291 28.9766 60.0557 28.1094C59.2822 27.2305 58.6963 26.2051 58.2979 25.0332C57.8994 23.8496 57.7002 22.5664 57.7002 21.1836ZM63.2021 20.8145V21.1836C63.2021 21.9336 63.2607 22.6367 63.3779 23.293C63.5068 23.9492 63.7119 24.5234 63.9932 25.0156C64.2744 25.5078 64.6436 25.8945 65.1006 26.1758C65.5693 26.4453 66.1377 26.5801 66.8057 26.5801C67.4736 26.5801 68.0361 26.4453 68.4932 26.1758C68.9502 25.8945 69.3193 25.5078 69.6006 25.0156C69.8818 24.5234 70.0811 23.9492 70.1982 23.293C70.3271 22.6367 70.3916 21.9336 70.3916 21.1836V20.8145C70.3916 20.0762 70.3271 19.3848 70.1982 18.7402C70.0811 18.084 69.8818 17.5039 69.6006 17C69.3193 16.4961 68.9443 16.1035 68.4756 15.8223C68.0186 15.541 67.4502 15.4004 66.7705 15.4004C66.1143 15.4004 65.5576 15.541 65.1006 15.8223C64.6436 16.1035 64.2744 16.4961 63.9932 17C63.7119 17.5039 63.5068 18.084 63.3779 18.7402C63.2607 19.3848 63.2021 20.0762 63.2021 20.8145ZM90.7646 11.4805H95.7568V29.8145C95.7568 31.5605 95.3584 33.043 94.5615 34.2617C93.7764 35.4805 92.6807 36.4062 91.2744 37.0391C89.8682 37.6719 88.2217 37.9883 86.335 37.9883C85.5146 37.9883 84.6592 37.877 83.7686 37.6543C82.8779 37.4434 82.04 37.1211 81.2549 36.6875C80.4697 36.2656 79.8135 35.7266 79.2861 35.0703L81.624 31.8359C82.1631 32.4453 82.8076 32.9375 83.5576 33.3125C84.3076 33.6992 85.1631 33.8926 86.124 33.8926C87.0029 33.8926 87.7471 33.7344 88.3564 33.418C88.9658 33.1016 89.4287 32.6387 89.7451 32.0293C90.0732 31.4199 90.2373 30.6816 90.2373 29.8145V15.9277L90.7646 11.4805ZM78.0557 21.2188V20.8496C78.0557 19.4082 78.2314 18.0957 78.583 16.9121C78.9346 15.7168 79.4443 14.6914 80.1123 13.8359C80.792 12.9688 81.6064 12.3008 82.5557 11.832C83.5166 11.3633 84.5947 11.1289 85.79 11.1289C87.0791 11.1289 88.1455 11.375 88.9893 11.8672C89.833 12.3477 90.5186 13.0273 91.0459 13.9062C91.5732 14.7734 91.9893 15.7988 92.2939 16.9824C92.5986 18.1543 92.8447 19.4258 93.0322 20.7969V21.4297C92.8447 22.7422 92.5752 23.9668 92.2236 25.1035C91.8721 26.2402 91.415 27.2422 90.8525 28.1094C90.29 28.9648 89.5869 29.6387 88.7432 30.1309C87.9111 30.6113 86.915 30.8516 85.7549 30.8516C84.5713 30.8516 83.5049 30.6113 82.5557 30.1309C81.6064 29.6504 80.792 28.9766 80.1123 28.1094C79.4443 27.2422 78.9346 26.2227 78.583 25.0508C78.2314 23.8789 78.0557 22.6016 78.0557 21.2188ZM83.54 20.8496V21.2188C83.54 21.9688 83.6104 22.666 83.751 23.3105C83.9033 23.9551 84.126 24.5234 84.4189 25.0156C84.7236 25.5078 85.0986 25.8945 85.5439 26.1758C86.001 26.4453 86.5342 26.5801 87.1436 26.5801C88.0342 26.5801 88.7549 26.3926 89.3057 26.0176C89.8682 25.6309 90.2783 25.0977 90.5361 24.418C90.8057 23.7383 90.9463 22.9473 90.958 22.0449V20.1992C90.958 19.4492 90.8818 18.7754 90.7295 18.1777C90.5771 17.5801 90.3486 17.0762 90.0439 16.666C89.751 16.2559 89.3643 15.9453 88.8838 15.7344C88.415 15.5117 87.8467 15.4004 87.1787 15.4004C86.5811 15.4004 86.0537 15.541 85.5967 15.8223C85.1396 16.0918 84.7588 16.4727 84.4541 16.9648C84.1494 17.457 83.9209 18.0371 83.7686 18.7051C83.6162 19.3613 83.54 20.0762 83.54 20.8496ZM104.792 15.541V30.5H99.29V11.4805H104.458L104.792 15.541ZM104.071 20.3223L102.7 20.3574C102.7 18.9277 102.876 17.6445 103.228 16.5078C103.579 15.3711 104.077 14.4043 104.722 13.6074C105.378 12.7988 106.157 12.1836 107.06 11.7617C107.974 11.3398 108.981 11.1289 110.083 11.1289C110.974 11.1289 111.788 11.2578 112.526 11.5156C113.265 11.7734 113.897 12.1895 114.425 12.7637C114.964 13.3262 115.374 14.0762 115.655 15.0137C115.937 15.9395 116.077 17.082 116.077 18.4414V30.5H110.558V18.4238C110.558 17.627 110.446 17.0117 110.224 16.5781C110.001 16.1445 109.673 15.8398 109.239 15.6641C108.817 15.4883 108.302 15.4004 107.692 15.4004C107.048 15.4004 106.497 15.5293 106.04 15.7871C105.583 16.0332 105.208 16.3789 104.915 16.8242C104.622 17.2695 104.405 17.791 104.265 18.3887C104.136 18.9863 104.071 19.6309 104.071 20.3223ZM128.628 30.8516C127.116 30.8516 125.763 30.6113 124.567 30.1309C123.372 29.6504 122.358 28.9883 121.526 28.1445C120.706 27.2891 120.079 26.3047 119.646 25.1914C119.212 24.0781 118.995 22.8887 118.995 21.623V20.9551C118.995 19.5371 119.194 18.2305 119.593 17.0352C119.991 15.8398 120.571 14.8027 121.333 13.9238C122.106 13.0332 123.056 12.3477 124.181 11.8672C125.306 11.375 126.589 11.1289 128.03 11.1289C129.378 11.1289 130.579 11.3516 131.634 11.7969C132.688 12.2305 133.579 12.8574 134.306 13.6777C135.032 14.4863 135.583 15.4648 135.958 16.6133C136.345 17.75 136.538 19.0273 136.538 20.4453V22.6953H121.21V19.1621H131.159V18.7402C131.159 18.0723 131.036 17.4863 130.79 16.9824C130.556 16.4785 130.204 16.0918 129.735 15.8223C129.278 15.541 128.698 15.4004 127.995 15.4004C127.327 15.4004 126.771 15.541 126.325 15.8223C125.88 16.1035 125.522 16.502 125.253 17.0176C124.995 17.5215 124.808 18.1133 124.69 18.793C124.573 19.4609 124.515 20.1816 124.515 20.9551V21.623C124.515 22.3613 124.614 23.0352 124.813 23.6445C125.013 24.2539 125.306 24.7754 125.692 25.209C126.079 25.6426 126.548 25.9824 127.099 26.2285C127.649 26.4746 128.276 26.5977 128.979 26.5977C129.847 26.5977 130.673 26.4336 131.458 26.1055C132.243 25.7656 132.923 25.2383 133.497 24.5234L136.063 27.459C135.677 28.0215 135.132 28.5664 134.429 29.0938C133.737 29.6094 132.905 30.0312 131.933 30.3594C130.96 30.6875 129.858 30.8516 128.628 30.8516ZM147.155 26.5801C147.741 26.5801 148.251 26.4688 148.685 26.2461C149.118 26.0234 149.452 25.7129 149.687 25.3145C149.933 24.9043 150.056 24.4121 150.056 23.8379H155.224C155.224 25.2207 154.866 26.4395 154.151 27.4941C153.448 28.5488 152.499 29.375 151.304 29.9727C150.108 30.5586 148.761 30.8516 147.261 30.8516C145.784 30.8516 144.495 30.6113 143.394 30.1309C142.292 29.6387 141.372 28.9531 140.634 28.0742C139.896 27.1953 139.339 26.1758 138.964 25.0156C138.601 23.8438 138.419 22.5781 138.419 21.2188V20.7617C138.419 19.4141 138.601 18.1543 138.964 16.9824C139.339 15.8105 139.896 14.7852 140.634 13.9062C141.372 13.0273 142.286 12.3477 143.376 11.8672C144.478 11.375 145.767 11.1289 147.243 11.1289C148.802 11.1289 150.179 11.4277 151.374 12.0254C152.581 12.623 153.524 13.4844 154.204 14.6094C154.884 15.7227 155.224 17.0645 155.224 18.6348H150.056C150.056 18.0254 149.944 17.4805 149.722 17C149.511 16.5078 149.183 16.1211 148.737 15.8398C148.304 15.5469 147.765 15.4004 147.12 15.4004C146.452 15.4004 145.901 15.5469 145.468 15.8398C145.046 16.1211 144.724 16.5137 144.501 17.0176C144.278 17.5215 144.126 18.0957 144.044 18.7402C143.962 19.373 143.921 20.0469 143.921 20.7617V21.2188C143.921 21.9453 143.962 22.6367 144.044 23.293C144.126 23.9375 144.278 24.5059 144.501 24.998C144.735 25.4902 145.063 25.877 145.485 26.1582C145.907 26.4395 146.464 26.5801 147.155 26.5801ZM167.616 11.4805V15.3301H156.331V11.4805H167.616ZM158.915 6.76953H164.417V24.541C164.417 25.0684 164.481 25.4727 164.61 25.7539C164.739 26.0352 164.95 26.2344 165.243 26.3516C165.536 26.457 165.911 26.5098 166.368 26.5098C166.696 26.5098 166.978 26.498 167.212 26.4746C167.446 26.4512 167.663 26.4219 167.862 26.3867V30.3594C167.394 30.5117 166.896 30.6289 166.368 30.7109C165.841 30.8047 165.267 30.8516 164.646 30.8516C163.462 30.8516 162.437 30.6582 161.569 30.2715C160.714 29.8848 160.058 29.2754 159.601 28.4434C159.144 27.5996 158.915 26.5039 158.915 25.1562V6.76953ZM168.97 21.1836V20.8145C168.97 19.4199 169.169 18.1367 169.567 16.9648C169.966 15.7812 170.552 14.7559 171.325 13.8887C172.099 13.0215 173.048 12.3477 174.173 11.8672C175.298 11.375 176.587 11.1289 178.04 11.1289C179.517 11.1289 180.817 11.375 181.942 11.8672C183.079 12.3477 184.034 13.0215 184.808 13.8887C185.581 14.7559 186.167 15.7812 186.565 16.9648C186.964 18.1367 187.163 19.4199 187.163 20.8145V21.1836C187.163 22.5664 186.964 23.8496 186.565 25.0332C186.167 26.2051 185.581 27.2305 184.808 28.1094C184.034 28.9766 183.085 29.6504 181.96 30.1309C180.835 30.6113 179.54 30.8516 178.075 30.8516C176.622 30.8516 175.327 30.6113 174.19 30.1309C173.054 29.6504 172.099 28.9766 171.325 28.1094C170.552 27.2305 169.966 26.2051 169.567 25.0332C169.169 23.8496 168.97 22.5664 168.97 21.1836ZM174.472 20.8145V21.1836C174.472 21.9336 174.53 22.6367 174.647 23.293C174.776 23.9492 174.981 24.5234 175.263 25.0156C175.544 25.5078 175.913 25.8945 176.37 26.1758C176.839 26.4453 177.407 26.5801 178.075 26.5801C178.743 26.5801 179.306 26.4453 179.763 26.1758C180.22 25.8945 180.589 25.5078 180.87 25.0156C181.151 24.5234 181.351 23.9492 181.468 23.293C181.597 22.6367 181.661 21.9336 181.661 21.1836V20.8145C181.661 20.0762 181.597 19.3848 181.468 18.7402C181.351 18.084 181.151 17.5039 180.87 17C180.589 16.4961 180.214 16.1035 179.745 15.8223C179.288 15.541 178.72 15.4004 178.04 15.4004C177.384 15.4004 176.827 15.541 176.37 15.8223C175.913 16.1035 175.544 16.4961 175.263 17C174.981 17.5039 174.776 18.084 174.647 18.7402C174.53 19.3848 174.472 20.0762 174.472 20.8145Z" fill="#001E40"/>
</svg>
