<svg width="169" height="33" viewBox="0 0 169 33" fill="none" xmlns="http://www.w3.org/2000/svg">
<g clip-path="url(#clip0_3241_1440)">
<mask id="mask0_3241_1440" style="mask-type:luminance" maskUnits="userSpaceOnUse" x="0" y="0" width="169" height="33">
<path d="M168.42 0.5H0.828125V32.4243H168.42V0.5Z" fill="white"/>
</mask>
<g mask="url(#mask0_3241_1440)">
<path d="M20.8281 24.4395H21.4476V30.2131H20.8281V24.4395Z" fill="#3D4D53"/>
<path d="M26.9365 27.6374C26.9365 26.6278 26.3395 26.1208 25.4606 26.1208C24.5816 26.1208 23.933 26.6496 23.933 27.7554V30.2075H23.3125V25.6837H23.933V26.4529C24.2432 25.8978 24.8636 25.6094 25.5875 25.6094C26.7015 25.6094 27.5522 26.2344 27.5522 27.5587V30.2075H26.9318V27.6331L26.9365 27.6374Z" fill="#3D4D53"/>
<path d="M31.0506 30.2873C29.9365 30.2873 29.1609 29.7803 29.0859 28.9413H29.7344C29.7863 29.4483 30.2517 29.7847 31.0554 29.7847C31.8591 29.7847 32.1411 29.4483 32.1411 29.0156C32.1411 27.9097 29.2175 28.5565 29.2175 26.8519C29.2175 25.1473 29.8897 25.6237 30.9236 25.6237C31.9577 25.6237 32.6581 26.1308 32.7099 26.9962H32.0893C32.0611 26.4892 31.6476 26.1045 30.9236 26.1045C30.1998 26.1045 29.8615 26.4192 29.8615 26.8257C29.8615 28.0539 32.7333 27.4027 32.7614 28.9892C32.7614 29.7104 32.0893 30.2656 31.0788 30.2656L31.0506 30.2917V30.2873Z" fill="#3D4D53"/>
<path d="M34.2031 24.4386C34.2031 24.1982 34.4098 24.0059 34.6683 24.0059C34.9268 24.0059 35.1335 24.1763 35.1335 24.4386C35.1335 24.7008 34.9268 24.8713 34.6683 24.8713C34.4098 24.8713 34.2031 24.6789 34.2031 24.4386ZM34.3583 25.7148H34.9784V30.2387H34.3583V25.7148Z" fill="#3D4D53"/>
<path d="M38.8658 25.6406C39.8247 25.6406 40.5203 26.1214 40.7789 26.6983V25.7106H41.3992V30.3306C41.3992 31.6067 40.4685 32.424 39.1244 32.424C37.78 32.424 37.0045 31.821 36.7977 30.8855H37.418C37.6248 31.4887 38.2454 31.9214 39.1244 31.9214C40.0033 31.9214 40.7789 31.3446 40.7789 30.3348V29.229C40.4921 29.8061 39.82 30.2866 38.8658 30.2866C37.9116 30.2866 36.5391 29.3734 36.5391 27.9527C36.5391 26.5323 37.5214 25.645 38.8658 25.645V25.6406ZM38.9973 26.1476C37.9634 26.1476 37.1878 26.7989 37.1878 27.9527C37.1878 29.1065 37.9634 29.7796 38.9973 29.7796C40.0315 29.7796 40.807 29.0804 40.807 27.9527C40.807 26.8251 40.0033 26.1258 38.9973 26.1258V26.152V26.1476Z" fill="#3D4D53"/>
<path d="M43.293 24.102H43.9136V26.4841C44.2238 25.929 44.8722 25.6405 45.5963 25.6405C46.682 25.6405 47.5375 26.2656 47.5375 27.5899V30.2387H46.9169V27.6642C46.9169 26.6546 46.32 26.1475 45.441 26.1475C44.5621 26.1475 43.9136 26.6764 43.9136 27.7822V30.2342H43.293V24.0977V24.102Z" fill="#3D4D53"/>
<path d="M49.5237 26.1949H48.8516V25.7141H49.5237V24.582H50.1444V25.7141H51.4887V26.1949H50.1444V28.9877C50.1444 29.5428 50.3511 29.7089 50.9199 29.7089H51.4887V30.2159H50.8165C49.961 30.2159 49.5237 29.9012 49.5237 28.9877V26.1949Z" fill="#3D4D53"/>
<path d="M54.6483 30.2873C53.5344 30.2873 52.7588 29.7803 52.6836 28.9413H53.3321C53.3839 29.4483 53.8493 29.7847 54.653 29.7847C55.4567 29.7847 55.7388 29.4483 55.7388 29.0156C55.7388 27.9097 52.8151 28.5565 52.8151 26.8519C52.8151 25.1473 53.4873 25.6237 54.5215 25.6237C55.5554 25.6237 56.2557 26.1308 56.3075 26.9962H55.6872C55.6588 26.4892 55.2452 26.1045 54.5215 26.1045C53.7975 26.1045 53.4592 26.4192 53.4592 26.8257C53.4592 28.0539 56.331 27.4027 56.3591 28.9892C56.3591 29.7104 55.6872 30.2656 54.6764 30.2656L54.6483 30.2917V30.2873Z" fill="#3D4D53"/>
<path d="M58.0668 30.2599C57.8083 30.2599 57.6016 30.0676 57.6016 29.8272C57.6016 29.5868 57.8083 29.3945 58.0668 29.3945C58.3254 29.3945 58.5084 29.5868 58.5084 29.8272C58.5084 30.0676 58.3017 30.2599 58.0668 30.2599Z" fill="#3D4D53"/>
<path d="M66.8844 27.5204H63.5188V30.2171H62.8984V24.4434H63.5188V27.044H66.8844V24.4434H67.5047V30.2171H66.8844V27.5204Z" fill="#3D4D53"/>
<path d="M73.5911 30.2391H72.9708V29.4436C72.684 30.0204 72.04 30.309 71.3163 30.309C70.2021 30.309 69.3516 29.684 69.3516 28.3598V25.7109H69.9719V28.2853C69.9719 29.295 70.5688 29.802 71.4478 29.802C72.3268 29.802 72.9755 29.273 72.9755 28.1673V25.7153H73.5959V30.2391H73.5911Z" fill="#3D4D53"/>
<path d="M82.5374 27.6382C82.5374 26.6286 81.9687 26.1216 81.1134 26.1216C80.2578 26.1216 79.6138 26.6767 79.6138 27.7563V30.2083H78.9935V27.6339C78.9935 26.6242 78.4247 26.1172 77.5691 26.1172C76.7139 26.1172 76.0698 26.6723 76.0698 27.7519V30.2039H75.4492V25.6801H76.0698V26.4494C76.38 25.8725 77.0004 25.584 77.6725 25.584C78.3447 25.584 79.1721 25.9468 79.4589 26.6898C79.7172 25.9424 80.4412 25.584 81.2168 25.584C81.9923 25.584 83.1581 26.209 83.1581 27.5333V30.1822H82.5374V27.6076V27.6339V27.6382Z" fill="#3D4D53"/>
<path d="M87.0189 25.6406C88.0013 25.6406 88.6735 26.1214 88.9321 26.6983V25.7106H89.5524V30.2343H88.9321V29.2248C88.6453 29.8016 87.9731 30.2825 86.9908 30.2825C86.0084 30.2825 84.6875 29.3689 84.6875 27.9484C84.6875 26.5279 85.6699 25.6406 87.0142 25.6406H87.0189ZM87.1223 26.1476C86.0882 26.1476 85.3126 26.7989 85.3126 27.9527C85.3126 29.1065 86.0882 29.7796 87.1223 29.7796C88.1565 29.7796 88.9321 29.0804 88.9321 27.9527C88.9321 26.8251 88.1281 26.1258 87.1223 26.1258V26.152V26.1476Z" fill="#3D4D53"/>
<path d="M95.0654 27.6374C95.0654 26.6278 94.4684 26.1208 93.5895 26.1208C92.7105 26.1208 92.062 26.6496 92.062 27.7554V30.2075H91.4414V25.6837H92.062V26.4529C92.3722 25.8978 92.9925 25.6094 93.7165 25.6094C94.8304 25.6094 95.6812 26.2344 95.6812 27.5587V30.2075H95.0609V27.6331L95.0654 27.6374Z" fill="#3D4D53"/>
<path d="M97.3438 24.4386C97.3438 24.1982 97.5504 24.0059 97.8089 24.0059C98.0672 24.0059 98.2739 24.1763 98.2739 24.4386C98.2739 24.7008 98.0672 24.8713 97.8089 24.8713C97.5504 24.8713 97.3438 24.6789 97.3438 24.4386ZM97.4986 25.7148H98.119V30.2387H97.4986V25.7148Z" fill="#3D4D53"/>
<path d="M100.164 26.1949H99.4922V25.7141H100.164V24.582H100.785V25.7141H102.129V26.1949H100.785V28.9877C100.785 29.5428 100.991 29.7089 101.56 29.7089H102.129V30.2159H101.457C100.601 30.2159 100.164 29.9012 100.164 28.9877V26.1949Z" fill="#3D4D53"/>
<path d="M106.942 25.7148H107.591L104.719 32.354H104.07L105.001 30.2122L103.008 25.7148H103.68L105.335 29.5656L106.937 25.7148H106.942Z" fill="#3D4D53"/>
<path d="M108.981 30.2599C108.722 30.2599 108.516 30.0676 108.516 29.8272C108.516 29.5868 108.722 29.3945 108.981 29.3945C109.239 29.3945 109.422 29.5868 109.422 29.8272C109.422 30.0676 109.216 30.2599 108.981 30.2599Z" fill="#3D4D53"/>
<path d="M113.824 24.4395H114.444V30.2131H113.824V24.4395Z" fill="#3D4D53"/>
<path d="M123.401 27.6382C123.401 26.6286 122.832 26.1216 121.977 26.1216C121.121 26.1216 120.477 26.6767 120.477 27.7563V30.2083H119.857V27.6339C119.857 26.6242 119.288 26.1172 118.432 26.1172C117.577 26.1172 116.933 26.6723 116.933 27.7519V30.2039H116.312V25.6801H116.933V26.4494C117.243 25.8725 117.864 25.584 118.536 25.584C119.208 25.584 120.035 25.9468 120.322 26.6898C120.58 25.9424 121.304 25.584 122.08 25.584C122.856 25.584 124.021 26.209 124.021 27.5333V30.1822H123.401V27.6076V27.6339V27.6382Z" fill="#3D4D53"/>
<path d="M128.366 25.6406C129.687 25.6406 130.67 26.5323 130.67 27.9484C130.67 29.3645 129.687 30.2825 128.366 30.2825C127.046 30.2825 126.712 29.7755 126.425 29.2248V32.3541H125.805V25.7149H126.425V26.7027C126.712 26.1258 127.384 25.645 128.366 25.645V25.6406ZM128.263 26.1476C127.281 26.1476 126.453 26.8469 126.453 27.9746C126.453 29.1024 127.281 29.8016 128.263 29.8016C129.245 29.8016 130.073 29.1024 130.073 27.9746C130.073 26.8469 129.297 26.1695 128.263 26.1695V26.1432V26.1476Z" fill="#3D4D53"/>
<path d="M134.316 25.6406C135.298 25.6406 135.97 26.1214 136.229 26.6983V25.7106H136.849V30.2343H136.229V29.2248C135.942 29.8016 135.27 30.2825 134.288 30.2825C133.305 30.2825 131.984 29.3689 131.984 27.9484C131.984 26.5279 132.967 25.6406 134.311 25.6406H134.316ZM134.419 26.1476C133.385 26.1476 132.61 26.7989 132.61 27.9527C132.61 29.1065 133.385 29.7796 134.419 29.7796C135.453 29.7796 136.229 29.0804 136.229 27.9527C136.229 26.8251 135.425 26.1258 134.419 26.1258V26.152V26.1476Z" fill="#3D4D53"/>
<path d="M140.785 25.64C142.002 25.64 142.801 26.2431 143.008 27.1785H142.336C142.181 26.5272 141.584 26.1426 140.785 26.1426C139.986 26.1426 139.05 26.7458 139.05 27.9696C139.05 29.1935 139.826 29.7965 140.785 29.7965C141.743 29.7965 142.181 29.4119 142.336 28.7388H143.008C142.773 29.6304 141.997 30.2773 140.785 30.2773C139.572 30.2773 138.43 29.3858 138.43 27.9434C138.43 26.501 139.412 25.6094 140.785 25.6094V25.6356V25.64Z" fill="#3D4D53"/>
<path d="M144.797 26.1949H144.125V25.7141H144.797V24.582H145.418V25.7141H146.762V26.1949H145.418V28.9877C145.418 29.5428 145.624 29.7089 146.193 29.7089H146.762V30.2159H146.09C145.234 30.2159 144.797 29.9012 144.797 28.9877V26.1949Z" fill="#3D4D53"/>
<path d="M148.34 30.2599C148.082 30.2599 147.875 30.0676 147.875 29.8272C147.875 29.5868 148.082 29.3945 148.34 29.3945C148.599 29.3945 148.782 29.5868 148.782 29.8272C148.782 30.0676 148.575 30.2599 148.34 30.2599Z" fill="#3D4D53"/>
<path d="M13.1453 7.67741C12.3932 8.5472 9.04187 12.4372 8.2945 13.3026C7.34975 14.3953 7.34975 16.1698 8.2945 17.2625C9.23457 18.3552 10.7669 18.3552 11.7117 17.2625C12.4637 16.3971 15.8151 12.5027 16.5625 11.6373C17.5072 10.5403 17.5072 8.77009 16.5625 7.67304C15.6224 6.58034 14.0901 6.58034 13.15 7.67304" fill="#04B0BE"/>
<path d="M19.6977 18.0826C19.0819 18.0826 18.4615 17.8073 17.9914 17.2609C17.5308 16.7233 16.0737 15.0318 14.8516 13.6157C15.6083 12.7372 16.2711 11.9679 16.5578 11.6357C17.0279 11.0894 17.2676 10.3726 17.2676 9.65575C17.2676 8.93895 17.0325 8.22215 16.5578 7.67578C17.3052 8.54557 20.6612 12.4356 21.4086 13.301C22.3534 14.3937 22.3487 16.1682 21.4086 17.2609C20.9385 17.8073 20.3181 18.0826 19.7023 18.0826" fill="#C94851"/>
<path d="M13.1414 11.6415C13.4281 11.9693 14.0955 12.7429 14.8523 13.6214C15.6091 12.7473 16.2718 11.9736 16.5585 11.6415C17.5033 10.5444 17.5033 8.77423 16.5585 7.67716C16.3235 7.40619 16.0509 7.20075 15.7595 7.0609C14.8852 6.65005 13.8511 6.85546 13.1461 7.67716C12.2013 8.77423 12.2013 10.5444 13.1461 11.6415" fill="#632820"/>
<path d="M28.6953 16.1596L14.8761 1.24219L1.49886 16.1596C1.39546 16.282 1.34375 16.4 1.34375 16.5705C1.34375 17.0294 1.60227 17.2698 2.09581 17.2698C2.58935 17.2698 2.48594 17.1955 2.61285 17.0294L5.14636 14.1884L6.67397 12.4795L8.87376 10.0274L14.9043 3.29209L22.1993 11.1376L24.7845 13.9524L27.6329 17.0076C27.788 17.1781 27.9714 17.248 28.2017 17.248C28.667 17.248 28.9021 17.0294 28.9021 16.5967C28.9021 16.164 28.8502 16.2602 28.7187 16.1378" fill="#2B6179"/>
<path d="M2.09723 17.7515C1.31696 17.7515 0.828125 17.3013 0.828125 16.5713C0.828125 16.3004 0.912732 16.0731 1.09605 15.8633L14.8728 0.5L29.0631 15.8196L29.0868 15.7977C29.397 15.9901 29.4204 16.2523 29.4204 16.5932C29.4204 17.2925 28.955 17.7252 28.2031 17.7252C27.813 17.7252 27.4886 17.5898 27.2395 17.3188L24.3958 14.2636L21.8059 11.4444L14.9104 4.0316L3.0279 17.3144C3.0279 17.3144 3.0185 17.3319 3.0185 17.3363C2.81638 17.7165 2.48266 17.7471 2.09723 17.7471V17.7515ZM14.8869 1.99043L1.89981 16.4708C1.87161 16.5058 1.86691 16.5189 1.86691 16.5713C1.86691 16.7637 1.89511 16.7899 2.10193 16.7899C2.13013 16.7899 2.14893 16.7899 2.17243 16.7899C2.18183 16.7768 2.19123 16.7637 2.20063 16.7506L2.22414 16.7243L14.9057 2.5499L22.6002 10.8238L25.1902 13.6429L28.0339 16.6981C28.0856 16.7549 28.1185 16.7724 28.2125 16.7724C28.3253 16.7724 28.3676 16.7506 28.3723 16.7506C28.3723 16.7506 28.3958 16.7112 28.3958 16.6063C28.3958 16.5713 28.3958 16.5408 28.3958 16.5145C28.3864 16.5058 28.377 16.497 28.3676 16.4883L28.3958 16.4621C28.3958 16.4621 28.3958 16.4315 28.3958 16.4228L28.3206 16.4839L14.901 1.99481L14.8869 1.99043ZM28.3817 16.414C28.3817 16.414 28.3864 16.4359 28.3911 16.4446L28.6967 16.1605L28.3817 16.414Z" fill="#2B6179"/>
<path d="M50.2252 11.2781V16.7416C50.2252 17.1743 49.99 17.3929 49.5246 17.3929C49.0595 17.3929 48.8009 17.1743 48.8009 16.7416V15.225C46.5494 16.9339 43.781 17.7775 40.5188 17.7775C37.2568 17.7775 34.6949 17.0082 32.4953 15.4216C30.2204 13.8088 29.0781 11.8376 29.0781 9.52547C29.0781 7.21334 30.2157 5.24211 32.4953 3.62929C34.7186 2.0427 37.4118 1.27344 40.5188 1.27344C43.6258 1.27344 44.218 1.58813 45.8772 2.23501C47.5365 2.88189 48.9043 3.77354 49.99 4.90556C50.1218 5.02794 50.1734 5.17219 50.1734 5.33825C50.1734 5.79719 49.9384 6.01137 49.4496 6.01137C48.9605 6.01137 49.0358 5.93707 48.9043 5.77098C47.9735 4.78318 46.7843 4.01393 45.2803 3.46319C43.8044 2.90811 42.2014 2.61964 40.5188 2.61964C37.7504 2.61964 35.3955 3.29273 33.4305 4.63893C31.4659 5.98513 30.5069 7.62419 30.5069 9.5211C30.5069 11.418 31.4893 13.0352 33.4305 14.3814C35.3955 15.7276 37.7504 16.4007 40.5188 16.4007C43.2875 16.4007 43.7526 16.1341 45.2003 15.6052C46.6481 15.0764 47.8656 14.3289 48.7961 13.3674V12.5501H40.514C40.0205 12.5501 39.7903 12.3315 39.7903 11.8988C39.7903 11.4661 40.0252 11.2257 40.514 11.2257H50.2157V11.2738L50.2252 11.2781Z" fill="#2B6179"/>
<path d="M40.5233 18.2552C37.158 18.2552 34.5069 17.4728 32.185 15.7944C29.7878 14.0985 28.5703 11.9831 28.5703 9.51798C28.5703 7.05284 29.7878 4.94176 32.1897 3.24153C34.474 1.61123 37.2753 0.785156 40.5233 0.785156C43.5504 0.785156 44.3025 1.08237 45.7971 1.67242L46.0791 1.78606C47.7949 2.45917 49.2379 3.39452 50.3705 4.57026C50.582 4.77567 50.6901 5.02919 50.6901 5.33514C50.6901 6.05631 50.225 6.48903 49.4495 6.48903C48.9841 6.48903 48.7115 6.42784 48.5092 6.08692C48.5092 6.07818 48.5 6.06944 48.4953 6.06068C47.6068 5.12533 46.4929 4.41727 45.092 3.90151C43.6632 3.36391 42.1263 3.09293 40.5233 3.09293C37.8536 3.09293 35.635 3.72231 33.7408 5.02045C31.9169 6.27048 31.0287 7.74343 31.0287 9.51798C31.0287 11.2925 31.9169 12.7217 33.7453 13.9936C35.635 15.2874 37.8536 15.9212 40.5233 15.9212C42.9629 15.9212 43.5033 15.7201 44.6737 15.2874L45.0168 15.1606C46.3377 14.6755 47.4377 14.0111 48.2837 13.1807V13.0321H40.5233C39.7478 13.0321 39.2824 12.6081 39.2824 11.9C39.2824 11.192 39.7572 10.7462 40.5233 10.7462H50.742V16.7385C50.742 17.4378 50.2766 17.8705 49.5247 17.8705C48.7725 17.8705 48.2837 17.4247 48.2837 16.7385V16.1834C46.1167 17.5602 43.508 18.2552 40.5233 18.2552ZM40.5233 1.7511C37.5105 1.7511 34.9157 2.51161 32.8195 4.01078C30.6854 5.51871 29.6044 7.37629 29.6044 9.52235C29.6044 11.6684 30.6854 13.526 32.8148 15.0339C34.9534 16.5768 37.3977 17.2936 40.5233 17.2936C43.649 17.2936 46.3425 16.4719 48.4763 14.8503L49.3224 14.2078V16.7385C49.3224 16.8827 49.3224 16.909 49.5292 16.909C49.642 16.909 49.6844 16.8871 49.6891 16.8871C49.6891 16.8871 49.7125 16.8478 49.7125 16.7429V11.7121H40.5281C40.3352 11.7121 40.3213 11.7252 40.3213 11.9044C40.3213 12.0093 40.3447 12.0443 40.3447 12.0487C40.3447 12.0487 40.3918 12.0705 40.5281 12.0705H49.3271V13.5566L49.1956 13.6921C48.2224 14.6973 46.9489 15.4928 45.4025 16.0567L45.0639 16.179C43.8419 16.6336 43.1697 16.8827 40.5281 16.8827C37.6702 16.8827 35.1791 16.1703 33.1297 14.7673C31.0474 13.3206 29.9945 11.5591 29.9945 9.51798C29.9945 7.47683 31.0474 5.6717 33.1297 4.2468C35.1791 2.84379 37.6655 2.13135 40.5281 2.13135C42.2626 2.13135 43.931 2.42857 45.4822 3.00988C47.0475 3.58683 48.2929 4.38232 49.299 5.44878L49.3319 5.48813C49.3319 5.48813 49.3505 5.51434 49.36 5.52744C49.3834 5.52744 49.4166 5.52744 49.4542 5.52744C49.5857 5.52744 49.6325 5.5056 49.6373 5.50123C49.6373 5.50123 49.661 5.45752 49.661 5.33514C49.661 5.26958 49.6468 5.25647 49.6325 5.24334L49.6139 5.22587C48.5844 4.15503 47.2638 3.29835 45.6845 2.6777L45.3977 2.56406C43.9876 2.0046 43.3436 1.7511 40.5281 1.7511H40.5233Z" fill="#2B6179"/>
<path d="M55.3485 1.70117C55.8418 1.70117 56.0722 1.91971 56.0722 2.37427V16.7366C56.0722 17.1694 55.8371 17.3879 55.3485 17.3879C54.8599 17.3879 54.6484 17.1694 54.6484 16.7366V2.37427C54.6484 1.91534 54.8833 1.70117 55.3485 1.70117Z" fill="#2B6179"/>
<path d="M55.3501 17.869C54.5887 17.869 54.1328 17.445 54.1328 16.737V2.37459C54.1328 1.65341 54.5887 1.2207 55.3501 1.2207C56.1117 1.2207 56.591 1.65341 56.591 2.37459V16.737C56.591 17.445 56.1257 17.869 55.3501 17.869ZM55.1904 16.8943C55.1904 16.8943 55.2467 16.9074 55.3501 16.9074C55.4864 16.9074 55.5335 16.8812 55.5382 16.8812C55.5382 16.8812 55.5569 16.8419 55.5569 16.7413V2.37896C55.5569 2.25658 55.5335 2.21287 55.5287 2.2085C55.5287 2.2085 55.4819 2.18664 55.3501 2.18664C55.2372 2.18664 55.1999 2.2085 55.1951 2.2085C55.1951 2.2085 55.1715 2.25221 55.1715 2.37896V16.7413C55.1715 16.8419 55.1904 16.8856 55.1951 16.8943H55.1904Z" fill="#2B6179"/>
<path d="M77.7824 16.7425C77.7824 17.1752 77.5475 17.3938 77.0587 17.3938H60.5508V2.38013C60.5508 1.9212 60.786 1.70703 61.2748 1.70703C61.7636 1.70703 61.9985 1.92557 61.9985 2.38013V16.0694H77.0587C77.5522 16.0694 77.7824 16.2879 77.7824 16.7425Z" fill="#2B6179"/>
<path d="M77.0522 17.869H60.0273V2.37459C60.0273 1.65341 60.4927 1.2207 61.2683 1.2207C62.0439 1.2207 62.5093 1.65341 62.5093 2.37459V15.5831H77.0522C77.8277 15.5831 78.2931 16.0158 78.2931 16.737C78.2931 17.4581 77.8277 17.869 77.0522 17.869ZM61.0615 16.9074H77.0522C77.1885 16.9074 77.2356 16.8812 77.2403 16.8812C77.2403 16.8812 77.259 16.8419 77.259 16.7413C77.259 16.619 77.2355 16.5752 77.2308 16.5709C77.2308 16.5709 77.1837 16.549 77.0522 16.549H61.4751V2.37896C61.4751 2.25658 61.4517 2.21287 61.4469 2.2085C61.4469 2.2085 61.3998 2.18664 61.2683 2.18664C61.1368 2.18664 61.0897 2.2085 61.0849 2.21287C61.0849 2.21287 61.0615 2.25658 61.0615 2.37896V16.9118V16.9074Z" fill="#2B6179"/>
<path d="M82.2313 1.70117C82.7246 1.70117 82.9547 1.91971 82.9547 2.37427V16.7366C82.9547 17.1694 82.7199 17.3879 82.2313 17.3879C81.7427 17.3879 81.5312 17.1694 81.5312 16.7366V2.37427C81.5312 1.91534 81.7661 1.70117 82.2313 1.70117Z" fill="#2B6179"/>
<path d="M82.229 17.869C81.4676 17.869 81.0117 17.445 81.0117 16.737V2.37459C81.0117 1.65341 81.4676 1.2207 82.229 1.2207C82.9903 1.2207 83.47 1.65341 83.47 2.37459V16.737C83.47 17.445 83.0046 17.869 82.229 17.869ZM82.0738 16.8943C82.0738 16.8943 82.1303 16.9074 82.2337 16.9074C82.37 16.9074 82.4171 16.8812 82.4218 16.8812C82.4218 16.8812 82.4405 16.8419 82.4405 16.7413V2.37896C82.4405 2.25658 82.4171 2.21287 82.4124 2.2085C82.4124 2.2085 82.3653 2.18664 82.2337 2.18664C82.1209 2.18664 82.0832 2.2085 82.0785 2.2085C82.0785 2.2085 82.0551 2.25221 82.0551 2.37896V16.7413C82.0551 16.8419 82.0738 16.8856 82.0785 16.8943H82.0738Z" fill="#2B6179"/>
<path d="M88.2569 11.1348C88.7504 11.1348 88.9806 11.3534 88.9806 11.8079C88.9806 13.0361 89.9396 14.0939 91.829 14.9855C93.7187 15.8771 95.9702 16.3317 98.5552 16.3317C101.141 16.3317 103.679 16.0651 105.465 15.5144C107.251 14.9855 108.13 14.2643 108.13 13.4207C108.13 12.5772 107.43 11.8079 106.01 11.3534C104.976 11.0168 102.903 10.6541 99.7494 10.2476L98.4284 10.0771L97.2112 9.90664C93.8221 9.42586 91.6222 9.04122 90.6117 8.70469C88.5437 8.00537 87.5047 6.92577 87.5047 5.40911C87.5047 3.89245 88.6705 2.85658 90.9971 2.11355C92.9384 1.48852 95.4485 1.17383 98.5271 1.17383C101.606 1.17383 104.219 1.72892 106.339 2.85658C108.459 3.98862 109.521 5.36103 109.521 7.01757C109.521 8.67409 109.286 7.69066 108.798 7.69066C108.309 7.69066 108.074 7.47211 108.074 7.01757C108.074 5.78938 107.115 4.73163 105.225 3.84C103.336 2.94836 101.084 2.4938 98.4989 2.4938C95.9136 2.4938 93.3754 2.76042 91.5893 3.31114C89.8033 3.84 88.8962 4.56117 88.8962 5.42659C88.8962 6.29201 89.6481 7.03941 91.171 7.52019C92.1815 7.83491 94.2499 8.21952 97.3566 8.626L99.8904 8.96256C103.176 9.37341 105.376 9.7799 106.513 10.1645C108.506 10.8376 109.488 11.9216 109.488 13.4382C109.488 14.9549 108.323 15.9908 105.996 16.7338C104.055 17.3588 101.545 17.6735 98.4942 17.6735C95.4438 17.6735 92.8022 17.1184 90.6822 15.9908C88.5623 14.8631 87.5 13.4863 87.5 11.8298C87.5 10.1733 87.7352 11.1567 88.224 11.1567" fill="#2B6179"/>
<path d="M98.5033 18.1584C95.3258 18.1584 92.609 17.5684 90.4328 16.4101C88.1484 15.1907 86.9922 13.6522 86.9922 11.8296C86.9922 11.0559 87.0109 10.6057 87.4152 10.4353C87.7678 10.2823 88.0498 10.5052 88.1718 10.6013C88.1955 10.6232 88.2332 10.6494 88.2613 10.6669V10.6494C89.0369 10.6494 89.502 11.0822 89.502 11.8033C89.502 12.8261 90.3623 13.7483 92.0639 14.5482C93.8876 15.4092 96.0733 15.8419 98.5549 15.8419C101.253 15.8419 103.65 15.5622 105.3 15.0465C106.795 14.605 107.613 14.0237 107.613 13.4118C107.613 12.7474 106.969 12.1574 105.841 11.799C104.858 11.4799 102.842 11.1258 99.6785 10.715L98.3576 10.5445L97.1356 10.3741C93.4974 9.85833 91.4341 9.47806 90.4375 9.1459C88.1484 8.37662 86.9922 7.11348 86.9922 5.39575C86.9922 3.67805 88.2471 2.47171 90.8324 1.64563C92.8158 1.0075 95.4058 0.679688 98.5315 0.679688C101.657 0.679688 104.426 1.26974 106.602 2.428C108.886 3.64744 110.043 5.18597 110.043 7.00858C110.043 7.7822 110.024 8.2324 109.62 8.40286C109.267 8.55582 108.985 8.33293 108.863 8.23677C108.835 8.21492 108.788 8.17995 108.76 8.16247C108.003 8.14934 107.556 7.72101 107.556 7.00858C107.556 5.9858 106.696 5.06359 104.995 4.26373C103.171 3.40268 100.985 2.96998 98.5033 2.96998C95.8054 2.96998 93.4082 3.24971 91.7582 3.76545C90.8792 4.02334 89.4223 4.58278 89.4223 5.42636C89.4223 6.32236 90.6301 6.83812 91.3494 7.0654C92.3741 7.38445 94.5408 7.76909 97.441 8.14934L99.9792 8.48589C103.232 8.89238 105.497 9.30323 106.705 9.71408C108.905 10.4571 110.024 11.7115 110.024 13.438C110.024 15.1645 108.769 16.362 106.184 17.1881C104.2 17.8262 101.615 18.1541 98.5128 18.1541L98.5033 18.1584ZM88.0261 11.6154C88.0261 11.6809 88.0261 11.7509 88.0261 11.8296C88.0261 13.3025 88.9803 14.5263 90.9497 15.5753C92.9662 16.6505 95.5092 17.1969 98.5081 17.1969C101.507 17.1969 103.965 16.8909 105.841 16.2834C108.661 15.3786 108.985 14.2291 108.985 13.4424C108.985 12.1442 108.125 11.222 106.348 10.6232C105.563 10.3566 103.796 9.937 99.8335 9.44311L97.2953 9.10655C94.2919 8.70881 92.1249 8.3198 91.0202 7.9789C88.7312 7.25771 88.3881 6.07323 88.3881 5.43073C88.3881 4.32055 89.4128 3.45513 91.4388 2.85634C93.1872 2.31436 95.6973 2.01715 98.5033 2.01715C101.15 2.01715 103.495 2.48919 105.464 3.41579C107.542 4.39485 108.595 5.60556 108.595 7.02169C108.595 7.14406 108.619 7.18778 108.623 7.19215C108.623 7.19215 108.656 7.21399 108.802 7.21399C108.872 7.21399 108.943 7.22276 109.009 7.23586C109.009 7.1703 109.009 7.10035 109.009 7.02169C109.009 5.54874 108.055 4.32492 106.085 3.27593C104.069 2.20072 101.526 1.65437 98.5268 1.65437C95.5279 1.65437 93.0415 1.96033 91.166 2.56786C88.3457 3.47261 88.0216 4.62213 88.0216 5.40886C88.0216 6.69387 88.924 7.62484 90.7853 8.25424C91.6971 8.56019 93.7652 8.93609 97.2861 9.43435L98.4986 9.60044L99.8148 9.76653C103.096 10.1905 105.117 10.5489 106.179 10.8942C107.749 11.3968 108.647 12.3191 108.647 13.4161C108.647 14.5132 107.627 15.3742 105.62 15.9687C103.871 16.5107 101.361 16.8079 98.5549 16.8079C95.9041 16.8079 93.5632 16.3358 91.5937 15.4092C89.5162 14.4302 88.4633 13.2194 88.4633 11.8033C88.4633 11.6809 88.4399 11.6372 88.4352 11.6329C88.4352 11.6329 88.4023 11.611 88.2566 11.611V10.6757C88.2566 10.6757 88.2423 10.6757 88.2332 10.6757V11.6372C88.1626 11.6372 88.0921 11.6285 88.0261 11.6154Z" fill="#2B6179"/>
<path d="M114.29 1.70117C114.783 1.70117 115.013 1.91971 115.013 2.37427V16.7366C115.013 17.1694 114.778 17.3879 114.29 17.3879C113.801 17.3879 113.59 17.1694 113.59 16.7366V2.37427C113.59 1.91534 113.825 1.70117 114.29 1.70117Z" fill="#2B6179"/>
<path d="M114.288 17.869C113.526 17.869 113.07 17.445 113.07 16.737V2.37459C113.07 1.65341 113.526 1.2207 114.288 1.2207C115.049 1.2207 115.529 1.65341 115.529 2.37459V16.737C115.529 17.445 115.063 17.869 114.288 17.869ZM114.128 16.8943C114.128 16.8943 114.184 16.9074 114.288 16.9074C114.424 16.9074 114.471 16.8812 114.476 16.8812C114.476 16.8812 114.495 16.8419 114.495 16.7413V2.37896C114.495 2.25658 114.471 2.21287 114.466 2.2085C114.466 2.2085 114.434 2.18664 114.288 2.18664C114.175 2.18664 114.137 2.2085 114.133 2.2085C114.133 2.2085 114.109 2.25221 114.109 2.37896V16.7413C114.109 16.8419 114.128 16.8856 114.133 16.8943H114.128Z" fill="#2B6179"/>
<path d="M120.63 1.70117C121.124 1.70117 121.354 1.91971 121.354 2.37427V11.6622C121.354 13.5372 122.595 14.8878 125.053 15.6789C126.656 16.1859 128.597 16.4482 130.929 16.4482C133.26 16.4482 135.197 16.1815 136.804 15.6789C139.263 14.8834 140.503 13.5372 140.503 11.6622V2.37427C140.503 1.91534 140.738 1.70117 141.227 1.70117C141.716 1.70117 141.951 1.91971 141.951 2.37427V11.6622C141.951 13.9 140.71 15.5347 138.224 16.5924C136.334 17.3879 133.904 17.7944 130.929 17.7944C127.953 17.7944 125.547 17.3835 123.657 16.5924C121.147 15.5347 119.906 13.8956 119.906 11.6622V2.37427C119.906 1.91534 120.141 1.70117 120.63 1.70117Z" fill="#2B6179"/>
<path d="M130.93 18.2803C127.931 18.2803 125.412 17.8607 123.447 17.0346C120.754 15.8982 119.391 14.0931 119.391 11.663V2.37505C119.391 1.65387 119.856 1.22117 120.632 1.22117V2.18274C120.5 2.18274 120.453 2.20459 120.448 2.20896C120.448 2.20896 120.425 2.25267 120.425 2.37505V11.663C120.425 13.7085 121.553 15.1771 123.875 16.1561C125.708 16.9254 128.082 17.3144 130.93 17.3144C133.779 17.3144 136.18 16.9254 138.013 16.1561C140.317 15.1771 141.435 13.7041 141.435 11.663V2.37505C141.435 2.25267 141.412 2.20896 141.407 2.20459C141.407 2.20459 141.374 2.18274 141.229 2.18274C141.097 2.18274 141.05 2.20459 141.045 2.20896C141.045 2.20896 141.022 2.25267 141.022 2.37505V11.663C141.022 13.7653 139.659 15.2689 136.975 16.1343C135.297 16.6631 133.261 16.9297 130.93 16.9297C128.599 16.9297 126.568 16.6631 124.89 16.1343C122.201 15.2645 120.838 13.7609 120.838 11.6586V2.37068C120.838 2.2483 120.815 2.20459 120.81 2.20022C120.81 2.20022 120.777 2.17837 120.632 2.17837V1.2168C121.407 1.2168 121.873 1.6495 121.873 2.37068V11.6586C121.873 13.3282 122.968 14.4952 125.224 15.2208C126.789 15.7147 128.707 15.9638 130.925 15.9638C133.144 15.9638 135.066 15.7147 136.632 15.2208C138.883 14.4952 139.978 13.3282 139.978 11.6586V2.37068C139.978 1.6495 140.444 1.2168 141.219 1.2168C141.995 1.2168 142.46 1.6495 142.46 2.37068V11.6586C142.46 14.0844 141.106 15.8895 138.432 17.0303C136.462 17.8563 133.938 18.276 130.921 18.276L130.93 18.2803Z" fill="#2B6179"/>
<path d="M166.922 1.79718C167.209 1.38633 167.904 1.57864 167.904 2.08565V16.9813C167.904 17.414 167.669 17.6325 167.204 17.6325C166.739 17.6325 166.48 17.414 166.48 16.9813V5.16706C166.48 5.04466 166.325 5.02281 166.273 5.09274L157.422 17.4358C157.164 17.7724 156.619 17.7724 156.389 17.4358L147.538 5.09274C147.458 4.9966 147.331 5.04466 147.331 5.16706V16.8589C147.331 17.3397 146.865 17.7243 146.372 17.6063C145.878 17.4883 145.907 17.3178 145.907 16.9813V2.08565C145.907 1.57864 146.607 1.38633 146.889 1.79718L156.826 15.6089C156.877 15.6832 156.981 15.6832 157.032 15.6089L166.941 1.79718H166.913H166.922Z" fill="#2B6179"/>
<path d="M156.897 18.1705C156.897 18.1705 156.879 18.1705 156.869 18.1705C156.493 18.1618 156.155 17.987 155.953 17.6985L147.849 6.39564V16.8593C147.849 17.2527 147.652 17.6242 147.323 17.8646C147.012 18.0875 146.618 18.1618 146.242 18.0744C145.452 17.8821 145.386 17.4537 145.391 17.0298V2.09043C145.391 1.64898 145.696 1.26435 146.152 1.14197C146.604 1.01959 147.074 1.18131 147.327 1.54408L156.93 14.8924L165.978 2.28712H165.969L166.486 1.54408C166.74 1.18131 167.21 1.01959 167.661 1.14197C168.117 1.26873 168.423 1.64898 168.423 2.09043V16.9861C168.423 17.6854 167.957 18.1181 167.205 18.1181C166.453 18.1181 165.964 17.6723 165.964 16.9861V6.40003L157.856 17.7116C157.626 18.0088 157.273 18.1793 156.897 18.1793V18.1705ZM147.44 4.55992C147.638 4.55992 147.826 4.64735 147.952 4.80468L147.971 4.82655L156.822 17.1696C156.841 17.1959 156.864 17.209 156.897 17.209C156.916 17.209 156.968 17.209 157.005 17.1565L165.847 4.82655C165.997 4.61674 166.289 4.52058 166.552 4.59927C166.82 4.67356 167.003 4.90522 167.003 5.16745V16.9817C167.003 17.1259 167.003 17.1521 167.21 17.1521C167.323 17.1521 167.365 17.1303 167.37 17.1303C167.37 17.1303 167.393 17.091 167.393 16.9861V2.09043C167.393 2.09043 167.384 2.07732 167.379 2.07295L157.471 15.8802C157.353 16.0463 157.151 16.1469 156.94 16.1469C156.723 16.1469 156.526 16.0463 156.404 15.8802L146.467 2.06858C146.467 2.06858 146.448 2.05984 146.434 2.06858V17.0341C146.43 17.0603 146.429 17.0953 146.429 17.1215C146.448 17.1303 146.477 17.1346 146.509 17.1434C146.575 17.1609 146.637 17.1434 146.693 17.1041C146.773 17.0472 146.815 16.9598 146.815 16.8637V5.17185C146.815 4.90959 146.989 4.67793 147.247 4.5949C147.309 4.5774 147.374 4.56429 147.44 4.56429V4.55992Z" fill="#2B6179"/>
</g>
</g>
<defs>
<clipPath id="clip0_3241_1440">
<rect width="167.765" height="32" fill="white" transform="translate(0.828125 0.5)"/>
</clipPath>
</defs>
</svg>
