<svg id="Layer_1" data-name="Layer 1" xmlns="http://www.w3.org/2000/svg" xmlns:xlink="http://www.w3.org/1999/xlink" viewBox="0 0 210 50"><defs><style>.cls-1{fill-rule:evenodd;fill:url(#linear-gradient);}</style><linearGradient id="linear-gradient" x1="45.67" y1="47.65" x2="-2.77" y2="-3.76" gradientTransform="matrix(1, 0, 0, -1, 0, 49.89)" gradientUnits="userSpaceOnUse"><stop offset="0" stop-color="#ff9901"/><stop offset="1" stop-color="#fbd835"/></linearGradient></defs><path class="cls-1" d="M44.43,11.17a5.65,5.65,0,0,0,5.72-5.59,5.72,5.72,0,0,0-11.43,0A5.65,5.65,0,0,0,44.43,11.17Zm-20,19a5.59,5.59,0,1,0-5.71-5.58A5.65,5.65,0,0,0,24.42,30.2Zm-13,14.22A5.65,5.65,0,0,1,5.72,50a5.59,5.59,0,1,1,0-11.17A5.65,5.65,0,0,1,11.43,44.42Zm22-4.57A18.17,18.17,0,0,1,9,33.44,17.19,17.19,0,0,1,9.83,14.6l5.93,5.24a9.59,9.59,0,0,0,0,9.75,10.16,10.16,0,0,0,13.71,3.59,9,9,0,0,0,.8-.5l5.93,5.24A19.07,19.07,0,0,1,33.46,39.85ZM15.53,9.52a17.28,17.28,0,0,0-2.12,1.4l6,5.3,0,0a10.19,10.19,0,0,1,13.72,3.59,9.59,9.59,0,0,1,.43,9l6,5.31A17.15,17.15,0,0,0,40,15.93,18.17,18.17,0,0,0,15.53,9.52Z"/><path d="M67.82,10H65.68l2-3.73h6.64L81,27.71H75.84l-1.2-4.3-1.18.09H69.27l-1-.09L67,27.71H62.16Zm5.64,9.35-2-7.16-2.11,7.16Zm10.26-3.61h-3l2-3.7h4.76l.4,1.75a5.64,5.64,0,0,1,1.7-1.34,5,5,0,0,1,2.36-.53,6.56,6.56,0,0,1,2.48.47,5.35,5.35,0,0,1,2,1.43,6.83,6.83,0,0,1,1.32,2.42,11.14,11.14,0,0,1,.48,3.47,8.05,8.05,0,0,1-2.2,6,8.46,8.46,0,0,1-6.21,2.15,12.58,12.58,0,0,1-1.5-.09v6.94H83.72Zm4.55,8.08A7.79,7.79,0,0,0,89.8,24a3.66,3.66,0,0,0,2.69-1,4.31,4.31,0,0,0,1-3.15,5,5,0,0,0-.69-2.74A2.34,2.34,0,0,0,90.68,16a2,2,0,0,0-1.85.92,4.14,4.14,0,0,0-.56,2.24Zm12.09-8.08h-3l2-3.7h4.76l.39,1.75a5.64,5.64,0,0,1,1.7-1.34,5.08,5.08,0,0,1,2.37-.53,6.5,6.5,0,0,1,2.47.47,5.27,5.27,0,0,1,2,1.43,6.85,6.85,0,0,1,1.33,2.42,11.14,11.14,0,0,1,.48,3.47,8.05,8.05,0,0,1-2.2,6,8.5,8.5,0,0,1-6.21,2.15,12.87,12.87,0,0,1-1.51-.09v6.94h-4.55Zm4.55,8.08a7.89,7.89,0,0,0,1.54.16,3.64,3.64,0,0,0,2.68-1,4.31,4.31,0,0,0,1-3.15,4.93,4.93,0,0,0-.7-2.74A2.33,2.33,0,0,0,107.32,16a2,2,0,0,0-1.85.92,4.23,4.23,0,0,0-.56,2.24ZM117,6.25h12.69c-.22.81-.43,1.52-.63,2.14l-.45,1.44a3.35,3.35,0,0,1-.24.66h-6.51l.06.66v3.7H128v4.3h-6.09v8.56H117Zm21.44,14.58a4.17,4.17,0,0,0-.63-.08h-.57a4.59,4.59,0,0,0-2.05.39,1.38,1.38,0,0,0-.79,1.35,1.46,1.46,0,0,0,.29.95,1.73,1.73,0,0,0,.71.51,3,3,0,0,0,.89.2l.8,0a7,7,0,0,0,1.35-.15Zm-1.56-3.31.64,0,.92,0a1.5,1.5,0,0,0-.83-1.51,5.23,5.23,0,0,0-2.06-.35,9.1,9.1,0,0,0-1.6.17,16.48,16.48,0,0,0-2,.49l-.48-1.65c-.06-.22-.15-.54-.26-1s-.18-.75-.22-1a17.16,17.16,0,0,1,2.85-.74,14.76,14.76,0,0,1,2.42-.23,7.3,7.3,0,0,1,4.94,1.52Q143,14.85,143,18.18V27c-.78.22-1.68.44-2.71.65a16.5,16.5,0,0,1-3.32.31,13.77,13.77,0,0,1-2.84-.27,6,6,0,0,1-2.2-.9,4.13,4.13,0,0,1-1.42-1.65,5.71,5.71,0,0,1-.5-2.5,4.58,4.58,0,0,1,.62-2.46,4.74,4.74,0,0,1,1.6-1.58,6.74,6.74,0,0,1,2.2-.83A12.66,12.66,0,0,1,136.85,17.52ZM145,10.34h-2.23l1.93-3.7h4.85V27.71H145Zm4.52,9.26L153.4,12h5.15l-4,7.37c.37.64.74,1.31,1.14,2s.78,1.42,1.19,2.14.79,1.44,1.19,2.15.76,1.38,1.13,2H154Zm11.61-3.82h-1.87V12h1.87V7.73h4.52V12h3.74l-2.11,3.79h-1.78l.15,1v4.72a6.06,6.06,0,0,0,.11,1.26,1.74,1.74,0,0,0,.33.75,1.18,1.18,0,0,0,.57.38,2.78,2.78,0,0,0,.8.1,5.31,5.31,0,0,0,.81-.07l1-.17.24,2,.18,1.8q-.87.18-1.59.27a12.12,12.12,0,0,1-1.48.09,5.84,5.84,0,0,1-4.16-1.29c-.91-.86-1.36-2.28-1.36-4.27Zm16.8-3.94a9.5,9.5,0,0,1,2.92.44,5.93,5.93,0,0,1,2.34,1.4,6.58,6.58,0,0,1,1.53,2.49,10.67,10.67,0,0,1,.56,3.7,10.61,10.61,0,0,1-.56,3.69,6.54,6.54,0,0,1-1.53,2.5,5.93,5.93,0,0,1-2.34,1.4,10.2,10.2,0,0,1-5.86,0,5.79,5.79,0,0,1-2.32-1.4,6.44,6.44,0,0,1-1.54-2.5,10.85,10.85,0,0,1-.56-3.69,10.65,10.65,0,0,1,.56-3.65,6.59,6.59,0,0,1,1.54-2.5A6,6,0,0,1,175,12.29,9.16,9.16,0,0,1,177.92,11.84Zm0,12.11a2.64,2.64,0,0,0,2.12-.9,5,5,0,0,0,.77-3.18,5.08,5.08,0,0,0-.77-3.2,2.88,2.88,0,0,0-4.25,0,5,5,0,0,0-.8,3.17,4.86,4.86,0,0,0,.79,3.18A2.68,2.68,0,0,0,177.92,24Zm15.32-11.39a4.71,4.71,0,0,1,2.47-.69,8.62,8.62,0,0,1,1.13.06c.29,0,.43.05.43,0v4a10.22,10.22,0,0,0-1.35,0,11,11,0,0,0-1.19.2,3.09,3.09,0,0,0-1.13.49,2.29,2.29,0,0,0-.86,1.14,6.23,6.23,0,0,0-.26,2v8H188V15.81h-2.44L187.45,12h5v1.18l.27-.24.24-.2A1.38,1.38,0,0,1,193.24,12.56Zm9,8.66a6.56,6.56,0,0,1-2.68-1.47,3.75,3.75,0,0,1-1-2.86,4.43,4.43,0,0,1,1.65-3.66,7.15,7.15,0,0,1,4.59-1.33,11.6,11.6,0,0,1,2.3.24,22.85,22.85,0,0,1,3,.88l-1.81,3.24a16.82,16.82,0,0,0-1.61-.49A6.56,6.56,0,0,0,205,15.6a3,3,0,0,0-1.28.23.75.75,0,0,0-.47.73.62.62,0,0,0,.34.6,9.1,9.1,0,0,0,.92.39l1.63.48a10.9,10.9,0,0,1,1.52.58,4.09,4.09,0,0,1,1.21.82,3.5,3.5,0,0,1,.78,1.25,5,5,0,0,1,.29,1.83,4.83,4.83,0,0,1-1.82,3.82A6.66,6.66,0,0,1,206,27.46a9.7,9.7,0,0,1-2.91.4c-.42,0-.83,0-1.22,0a11.14,11.14,0,0,1-1.16-.15,12.4,12.4,0,0,1-1.21-.29L198.12,27a4.2,4.2,0,0,0,.12-.48c0-.18.11-.41.19-.68s.17-.59.27-1,.23-.85.39-1.42c.84.22,1.55.38,2.12.48a9.23,9.23,0,0,0,1.74.16,5.4,5.4,0,0,0,.77-.06,3.71,3.71,0,0,0,.76-.22,1.78,1.78,0,0,0,.61-.39.85.85,0,0,0,.24-.63.67.67,0,0,0-.32-.63,5.63,5.63,0,0,0-.95-.39Z"/><path d="M64.56,38.87l-.31-.68h.89l2.67,5.62h-.9l-.37-.8H64.86a3.72,3.72,0,0,0-.86.09,1.93,1.93,0,0,0-.56.21.63.63,0,0,0-.26.25l-.15.25h-.87Zm.59,3.32h1L65,39.86,63.74,42.5a1.38,1.38,0,0,1,.5-.22A4,4,0,0,1,65.15,42.19Zm4.51-3.09v1.83a1.54,1.54,0,0,1,.51-.17,2.7,2.7,0,0,1,.54,0h1.05a1.09,1.09,0,0,0,.69-.2.8.8,0,0,0,.26-.65.67.67,0,0,0-.28-.6,1.09,1.09,0,0,0-.67-.17ZM72,42.94l-.67-1.41h-.65a4.39,4.39,0,0,0-.54,0,2.21,2.21,0,0,0-.51.18v2.07h-.81V38.29h2.91a2,2,0,0,1,.91.19,1.42,1.42,0,0,1,.61.55,1.71,1.71,0,0,1,.23.89,1.56,1.56,0,0,1-.33,1,1.81,1.81,0,0,1-1,.56l.43.88a3.85,3.85,0,0,0,.29.38.73.73,0,0,0,.24.19.87.87,0,0,0,.31,0h.26v.82l-.64,0a1.54,1.54,0,0,1-.6-.23A1.75,1.75,0,0,1,72,42.94ZM79.84,39l-.52.61a2.18,2.18,0,0,0-.73-.49,2.25,2.25,0,0,0-.89-.18,2.28,2.28,0,0,0-1.11.27,2.05,2.05,0,0,0-1.07,1.86,1.9,1.9,0,0,0,.31,1.06,2.09,2.09,0,0,0,.8.73,2.22,2.22,0,0,0,1.08.27,2.09,2.09,0,0,0,1-.23,2.06,2.06,0,0,0,.77-.63l.5.67a3,3,0,0,1-1,.74,3.11,3.11,0,0,1-1.25.26,3,3,0,0,1-1.52-.4,2.84,2.84,0,0,1-1.06-1.06,3,3,0,0,1-.4-1.51,2.7,2.7,0,0,1,.42-1.46,3,3,0,0,1,2.57-1.38,3.09,3.09,0,0,1,1.17.23A2.94,2.94,0,0,1,79.84,39ZM82,41.37v2.44h-.8V38.29H82v2.27a1.54,1.54,0,0,1,.7-.15l.72.06a10,10,0,0,0,1.09.1,1.89,1.89,0,0,0,.75-.14V38.29H86v5.52h-.81V41.24a1.73,1.73,0,0,1-.75.15c-.19,0-.55,0-1.09-.1a7,7,0,0,0-.72-.07A1.54,1.54,0,0,0,82,41.37Zm6.5,2.44h-.8V38.29h.8Zm5.76-4.71h-2v4.71h-.79V39.1h-2v-.81h4.72Zm1.85,2.5V43h3.41v.8H95.26V38.29h3.9v.81H96.07v1.68a1.41,1.41,0,0,1,.51-.18,3.71,3.71,0,0,1,.53,0h1.21v.83H97.11a4.11,4.11,0,0,0-.53,0A1.92,1.92,0,0,0,96.07,41.6Zm9.46-2.6-.52.61a2.09,2.09,0,0,0-.73-.49,2.25,2.25,0,0,0-.89-.18,2.31,2.31,0,0,0-1.11.27,2.05,2.05,0,0,0-1.07,1.86,1.9,1.9,0,0,0,.31,1.06,2.09,2.09,0,0,0,.8.73,2.22,2.22,0,0,0,1.08.27,2.22,2.22,0,0,0,1.76-.86l.5.67a2.91,2.91,0,0,1-1,.74,3.11,3.11,0,0,1-1.25.26,2.92,2.92,0,0,1-1.51-.4,2.86,2.86,0,0,1-1.07-1.06,3,3,0,0,1-.4-1.51,2.62,2.62,0,0,1,.43-1.46,2.92,2.92,0,0,1,1.08-1,3,3,0,0,1,1.48-.37,3.09,3.09,0,0,1,1.17.23A2.94,2.94,0,0,1,105.53,39Zm5.44.1h-2v4.71h-.79V39.1h-2v-.81H111Zm3.45,4.84a3.08,3.08,0,0,1-1.34-.27,1.9,1.9,0,0,1-.85-.78,2.37,2.37,0,0,1-.3-1.22V38.29h.81v3.38a1.35,1.35,0,0,0,.44,1.09,1.84,1.84,0,0,0,1.24.37,1.87,1.87,0,0,0,1.25-.37,1.39,1.39,0,0,0,.44-1.09V38.29h.8v3.38a2.37,2.37,0,0,1-.29,1.22,1.92,1.92,0,0,1-.86.78A3,3,0,0,1,114.42,43.94Zm4.86-4.84v1.83a1.52,1.52,0,0,1,.52-.17,2.53,2.53,0,0,1,.53,0h1.06a1.06,1.06,0,0,0,.68-.2.8.8,0,0,0,.26-.65.67.67,0,0,0-.28-.6,1.06,1.06,0,0,0-.66-.17Zm2.37,3.84L121,41.53h-.65a4.11,4.11,0,0,0-.53,0,2.13,2.13,0,0,0-.52.18v2.07h-.81V38.29h2.92a2,2,0,0,1,.9.19,1.42,1.42,0,0,1,.61.55,1.62,1.62,0,0,1,.23.89,1.56,1.56,0,0,1-.33,1,1.81,1.81,0,0,1-1,.56l.44.88a2.87,2.87,0,0,0,.28.38.66.66,0,0,0,.25.19.78.78,0,0,0,.3,0h.26v.82l-.64,0a1.54,1.54,0,0,1-.6-.23A1.75,1.75,0,0,1,121.65,42.94Zm3.87-1.34V43h3.42v.8h-4.23V38.29h3.9v.81h-3.09v1.68a1.53,1.53,0,0,1,.52-.18,3.59,3.59,0,0,1,.53,0h1.21v.83h-1.21a4.11,4.11,0,0,0-.53,0A2.13,2.13,0,0,0,125.52,41.6ZM134,38.87l-.31-.68h.89l2.67,5.62h-.91L136,43h-1.69a3.7,3.7,0,0,0-.85.09,1.93,1.93,0,0,0-.56.21.74.74,0,0,0-.27.25l-.14.25h-.87Zm.59,3.32h1l-1.21-2.33-1.23,2.64a1.3,1.3,0,0,1,.5-.22A3.94,3.94,0,0,1,134.58,42.19Zm8-.06a1.56,1.56,0,0,1-.33,1,2.09,2.09,0,0,1-.88.62,3.33,3.33,0,0,1-1.26.22,2.81,2.81,0,0,1-1.26-.3,3,3,0,0,1-1-.83l.58-.54a2.18,2.18,0,0,0,1.71.86,2.78,2.78,0,0,0,.78-.1,1.47,1.47,0,0,0,.61-.33.75.75,0,0,0,.25-.57.7.7,0,0,0-.25-.59,1.18,1.18,0,0,0-.61-.22,7.08,7.08,0,0,0-.78,0,2.67,2.67,0,0,1-1.52-.36,1.23,1.23,0,0,1-.53-1.07,1.5,1.5,0,0,1,.27-.85,1.85,1.85,0,0,1,.72-.63,2.21,2.21,0,0,1,1.06-.25,3.18,3.18,0,0,1,1.18.2,3,3,0,0,1,1,.67l-.5.59a3,3,0,0,0-.83-.5,2.33,2.33,0,0,0-.89-.15,1.2,1.2,0,0,0-.57.13,1,1,0,0,0-.42.33.71.71,0,0,0-.16.45c0,.43.4.64,1.18.64a4.68,4.68,0,0,1,1.5.19,1.4,1.4,0,0,1,.74.56A1.78,1.78,0,0,1,142.59,42.13ZM150.54,39l-.52.61a2.18,2.18,0,0,0-.73-.49,2.25,2.25,0,0,0-.89-.18,2.28,2.28,0,0,0-1.11.27,2.11,2.11,0,0,0-.79.75,2.19,2.19,0,0,0-.29,1.11,1.91,1.91,0,0,0,.32,1.06,2.13,2.13,0,0,0,.79.73,2.29,2.29,0,0,0,1.09.27,2.09,2.09,0,0,0,1-.23,2.14,2.14,0,0,0,.77-.63l.49.67a3,3,0,0,1-1,.74,3.11,3.11,0,0,1-1.25.26,3,3,0,0,1-1.52-.4,2.84,2.84,0,0,1-1.06-1.06,2.92,2.92,0,0,1-.4-1.51,2.7,2.7,0,0,1,.42-1.46,3,3,0,0,1,1.09-1,3,3,0,0,1,1.48-.37,3.09,3.09,0,0,1,1.17.23A2.94,2.94,0,0,1,150.54,39Zm6.11,2a2,2,0,0,0-.31-1.07,2.06,2.06,0,0,0-.79-.73,2.38,2.38,0,0,0-2.2,0,2.16,2.16,0,0,0-.78.75,2.09,2.09,0,0,0-.29,1.11,1.9,1.9,0,0,0,.31,1.06,2.09,2.09,0,0,0,.8.73,2.22,2.22,0,0,0,1.08.27,2.19,2.19,0,0,0,1.09-.28,2.27,2.27,0,0,0,.79-.75A2.08,2.08,0,0,0,156.65,41Zm.8.05a2.73,2.73,0,0,1-.42,1.47,2.92,2.92,0,0,1-1.09,1,3,3,0,0,1-1.48.38,2.92,2.92,0,0,1-1.51-.4,2.79,2.79,0,0,1-1.07-1.06,3,3,0,0,1-.4-1.51,2.62,2.62,0,0,1,.43-1.46,2.92,2.92,0,0,1,1.08-1,3,3,0,0,1,1.48-.37,3,3,0,0,1,1.5.39,2.89,2.89,0,0,1,1.48,2.54Zm2.37-2V43h1.25a1.69,1.69,0,0,0,.94-.27,1.76,1.76,0,0,0,.62-.7,2.17,2.17,0,0,0,.22-.95,2.31,2.31,0,0,0-.21-1,1.79,1.79,0,0,0-.61-.72,1.75,1.75,0,0,0-1-.28Zm-1.23,0-.36-.81h2.82a2.46,2.46,0,0,1,1.35.38,2.51,2.51,0,0,1,.92,1,2.82,2.82,0,0,1,.35,1.37,3,3,0,0,1-.83,2,2.17,2.17,0,0,1-.79.57,2.65,2.65,0,0,1-1,.16h-2V39.1Zm7.15,2.5V43h3.42v.8h-4.23V38.29h3.9v.81h-3.09v1.68a1.41,1.41,0,0,1,.51-.18,3.74,3.74,0,0,1,.54,0H168v.83h-1.21a4.16,4.16,0,0,0-.54,0A1.92,1.92,0,0,0,165.74,41.6Z"/></svg>