<svg width="180" height="24" viewBox="0 0 180 24" fill="none" xmlns="http://www.w3.org/2000/svg">
<g clip-path="url(#clip0_1020_9653)">
<path d="M128.634 6.85714V0H121.434L128.634 6.85714Z" fill="url(#paint0_linear_1020_9653)"/>
<path d="M28.4352 7.28259C33.9396 7.28259 37.957 10.7112 37.957 15.6163C37.957 20.5214 33.8874 24 28.4352 24C22.9831 24 18.8613 20.6465 18.8613 15.6163C18.8613 10.7112 22.9048 7.28259 28.4352 7.28259ZM50.1135 7.73306C52.5918 7.73306 54.9135 8.68405 55.7222 10.6861C56.9744 8.7341 59.1657 7.60793 61.4613 7.73306C65.7135 7.73306 69.3135 9.35975 69.3135 15.8415V24.025H64.5918V15.8165C64.5918 12.5881 63.3135 11.4119 61.4092 11.3618C58.8005 11.3618 57.4439 13.2888 57.4439 15.9416V24.025H52.7744V15.9166C52.7744 12.6882 51.5744 11.3618 49.67 11.3368C47.5309 11.3368 45.6265 12.6131 45.6265 16.0918V24.025H40.9048V8.00834H44.8179L45.2092 9.96038C46.357 8.43379 48.2092 7.60793 50.1135 7.73306ZM102.053 7.70803C106.305 7.70803 110.896 9.58499 110.896 15.8165V24H106.148V15.7164C106.305 14.5902 105.966 13.464 105.183 12.6131C104.427 11.7873 103.331 11.3118 102.183 11.3618C101.009 11.2617 99.8352 11.6872 98.9744 12.5381C98.1396 13.3639 97.67 14.5401 97.7483 15.7164V24H93.0526V7.98332H97.07L97.4874 9.93535C98.5831 8.50886 100.253 7.683 102.053 7.70803ZM160.748 7.73306C163.2 7.73306 165.574 8.68405 166.435 10.6861C167.661 8.75912 169.827 7.63295 172.122 7.73306C176.4 7.73306 179.974 9.35975 179.974 15.8415V24.025H175.305V15.8165C175.305 12.5881 174.027 11.4119 172.122 11.3618C169.514 11.3618 168.131 13.2888 168.131 15.9416V24.025H163.461V15.8916C163.461 12.6632 162.261 11.3368 160.357 11.3118C158.218 11.3118 156.287 12.5881 156.287 16.0667V24H151.592V8.00834H155.505L155.896 9.96038C157.044 8.45881 158.87 7.60793 160.748 7.73306ZM120.287 0V7.53285H126.444V10.8113H120.287V16.8676C120.287 17.9437 120.783 18.9698 121.644 19.6204C122.453 20.2461 123.522 20.4713 124.514 20.2211L124.644 20.196L127.435 22.9239L127.227 23.024C125.974 23.6496 124.618 23.975 123.209 24C118.409 23.9249 115.8 21.072 115.748 17.0177V16.8676V10.8113H112.592V7.53285H115.748V0H120.287ZM147.34 8.00834V23.7497H143.322L142.879 21.7977C141.835 23.2242 140.14 24.0501 138.366 24.025C134.14 24.0751 129.627 22.1731 129.522 16.0918V15.9166V7.70803L134.27 12.3128V15.9917C134.114 17.1178 134.453 18.244 135.235 19.0949C135.992 19.9208 137.087 20.3962 138.235 20.3462C139.409 20.4463 140.583 19.9958 141.418 19.17C142.227 18.3691 142.67 17.268 142.644 16.1418V16.0167V8.00834H147.34ZM81.0526 7.28259C86.9744 7.28259 90.5483 11.3118 90.0526 17.293H76.6179C77.0874 19.6705 79.357 20.3462 81.3396 20.3462C82.0179 20.3462 82.7222 20.2711 83.3744 20.0959L86.2179 22.8238C84.5744 23.6496 82.7744 24.0751 80.9483 24C75.6526 24 71.87 20.5965 71.87 15.6413C71.87 10.6861 75.6787 7.28259 81.0526 7.28259ZM24.2613 13.2638C23.3744 14.7153 23.3744 16.5422 24.2613 18.0188C25.1483 19.4703 26.7657 20.3462 28.4874 20.2461C29.7396 20.2961 30.9396 19.8206 31.8005 18.9447C32.6874 18.0688 33.157 16.8926 33.1309 15.6413H33.2092C33.2352 14.39 32.7396 13.1887 31.8526 12.3128C30.9657 11.4369 29.7396 10.9864 28.4874 11.0365C26.7657 10.9614 25.1483 11.8123 24.2613 13.2638ZM85.6439 13.9896C85.0179 12.0375 83.1396 10.8113 81.1048 10.9864C79.0961 10.8113 77.2439 12.0375 76.6179 13.9896H85.6439Z" fill="#191919"/>
<path d="M13.513 8.0083H17.2435L7.48696 20.5464H17.4783V24H0L9.78261 11.4369H0.0521739V8.0083H13.513Z" fill="#191919"/>
</g>
<defs>
<linearGradient id="paint0_linear_1020_9653" x1="128.109" y1="0.114344" x2="125.332" y2="3.37349" gradientUnits="userSpaceOnUse">
<stop offset="0.1195" stop-color="#2F70FE"/>
<stop offset="0.469" stop-color="#089DEE"/>
<stop offset="0.7684" stop-color="#09D191"/>
<stop offset="0.974" stop-color="#6DED02"/>
</linearGradient>
<clipPath id="clip0_1020_9653">
<rect width="180" height="24" fill="white"/>
</clipPath>
</defs>
</svg>
