<svg width="2000" height="330" viewBox="0 0 2000 330" fill="none" xmlns="http://www.w3.org/2000/svg">
<g clip-path="url(#clip0_1_2)">
<path d="M348.671 0H152.582V65.4137H87.077C63.9901 65.4377 41.8557 74.6196 25.5308 90.9445C9.20592 107.269 0.0240447 129.404 0 152.491L0 239.689C0.0240374 262.777 9.20543 284.913 25.5299 301.24C41.8543 317.568 63.9887 326.753 87.077 326.781H326.766V239.568H348.671C360.262 239.584 371.373 244.195 379.568 252.391C387.764 260.586 392.375 271.697 392.391 283.288V326.887H435.763V87.0921C435.735 64.0024 426.551 41.8665 410.224 25.5397C393.897 9.2128 371.761 0.0280433 348.671 0ZM283.394 283.409H87.077C75.488 283.393 64.3785 278.781 56.1852 270.585C47.992 262.389 43.384 251.278 43.372 239.689V152.491C43.384 140.903 47.9925 129.794 56.1861 121.6C64.3798 113.406 75.4894 108.798 87.077 108.786H152.582V152.491C152.61 175.579 161.795 197.713 178.122 214.038C194.449 230.362 216.585 239.544 239.674 239.568H283.394V283.409ZM392.391 207.989C379.122 200.249 364.033 196.179 348.671 196.196H239.674C228.086 196.184 216.976 191.575 208.783 183.381C200.589 175.188 195.981 164.078 195.969 152.491V43.3871H348.671C360.26 43.3991 371.371 48.0071 379.567 56.2004C387.763 64.3936 392.375 75.5031 392.391 87.0921V207.989Z" fill="#35D7B8"/>
<path d="M334.274 163.39C349.324 163.39 361.524 151.19 361.524 136.141C361.524 121.092 349.324 108.892 334.274 108.892C319.225 108.892 307.025 121.092 307.025 136.141C307.025 151.19 319.225 163.39 334.274 163.39Z" fill="#35D7B8"/>
<path d="M696.918 214.725V326.751H655.076V300.833C647.809 318.122 627.75 329.597 602.863 329.597C568.271 329.597 544.761 307.464 544.761 277.369C544.761 243.489 571.041 222.385 610.114 222.385H642.283C650.928 222.385 655.076 217.556 655.076 210.638C655.076 193.683 641.935 181.587 619.454 181.587C596.974 181.587 583.485 195.757 582.804 211.319H544.761C546.835 176.743 576.234 149.766 621.528 149.766C665.794 149.705 696.918 175.304 696.918 214.725ZM655.076 253.102V250.346H616.003C597.973 250.346 585.862 260.383 585.862 275.522C585.862 289.01 596.928 298.002 612.839 298.002C639.513 298.063 655.076 279.382 655.076 253.102Z" fill="#0E1115"/>
<path d="M732.191 152.475H774.715V179.452C784.404 160.423 804.114 149.705 829.017 149.705C868.378 149.705 894.022 178.06 894.022 218.873V326.766H851.498V227.865C851.498 204.007 836.965 187.4 815.166 187.4C791.307 187.4 774.7 206.081 774.7 231.665V326.766H732.191V152.475Z" fill="#0E1115"/>
<path d="M1093.55 268.664C1086.98 305.678 1054.48 329.536 1011.6 329.536C954.531 329.536 922.725 284.574 922.725 238.932C922.725 192.941 951.08 149.705 1008.14 149.705C1066.59 149.705 1092.91 192.244 1092.91 233.739C1092.91 239.613 1092.56 244.805 1092.22 248.272H963.539C966.657 276.279 984.642 294.263 1011.62 294.263C1033.4 294.263 1047.57 285.271 1052.07 268.664H1093.55ZM964.568 220.22H1050.33C1048.6 198.088 1033.39 181.496 1008.14 181.496C984.278 181.526 969.064 193.97 964.568 220.251V220.22Z" fill="#0E1115"/>
<path d="M1112.91 239.613C1112.91 189.822 1147.15 149.705 1201.44 149.705C1245.34 149.705 1280.98 175.986 1284.7 216.103H1242.6C1239.48 198.815 1222.54 186.371 1202.49 186.371C1173.09 186.371 1157.18 209.184 1157.18 239.613C1157.18 270.041 1173.43 292.87 1203.17 292.87C1223.23 292.87 1238.79 281.471 1242.94 264.107H1285.82C1280.28 302.15 1246.46 329.475 1201.44 329.475C1147.15 329.536 1112.91 289.419 1112.91 239.613Z" fill="#0E1115"/>
<path d="M1303.79 239.613C1303.79 186.371 1334.57 149.705 1386.1 149.705C1408.93 149.705 1427.25 159.394 1437.28 173.579V98.0676H1479.48V326.766H1437.28V304.981C1427.25 320.12 1407.89 329.536 1386.8 329.536C1334.57 329.536 1303.79 292.871 1303.79 239.613ZM1440.04 239.613C1440.04 207.459 1421.36 186.371 1393 186.371C1364.65 186.371 1345.98 207.398 1345.98 239.613C1345.98 271.828 1364.67 292.871 1393.02 292.871C1421.37 292.871 1440.06 271.783 1440.06 239.613H1440.04Z" fill="#0E1115"/>
<path d="M1510.59 239.613C1510.59 187.748 1548.63 149.705 1601.89 149.705C1654.8 149.705 1692.84 187.748 1692.84 239.613C1692.84 291.478 1654.8 329.536 1601.89 329.536C1548.67 329.536 1510.59 291.493 1510.59 239.613ZM1649.95 239.613C1649.95 208.155 1630.59 186.371 1601.89 186.371C1572.84 186.371 1553.44 208.155 1553.44 239.613C1553.44 271.071 1572.81 292.87 1601.89 292.87C1630.59 292.87 1649.95 271.086 1649.95 239.613Z" fill="#0E1115"/>
<path d="M1766.58 98.0676V152.476H1815.02V188.097H1766.58V264.168C1766.58 281.804 1775.92 290.797 1791.83 290.797H1814.99V326.766H1786.99C1748.94 326.766 1724.05 304.633 1724.05 265.909V98.0676H1766.58Z" fill="#0E1115"/>
<path d="M2000 268.664C1993.43 305.678 1960.93 329.536 1918.05 329.536C1860.98 329.536 1829.18 284.574 1829.18 238.932C1829.18 192.941 1857.53 149.705 1914.59 149.705C1973.04 149.705 1999.36 192.244 1999.36 233.739C1999.36 239.613 1999.02 244.805 1998.67 248.272H1869.99C1873.11 276.279 1891.09 294.263 1918.07 294.263C1939.85 294.263 1954.02 285.271 1958.52 268.664H2000ZM1871.02 220.22H1956.78C1955.05 198.088 1939.84 181.496 1914.59 181.496C1890.81 181.526 1875.52 193.97 1871.02 220.251V220.22Z" fill="#0E1115"/>
</g>
<defs>
<clipPath id="clip0_1_2">
<rect width="2000" height="329.536" fill="white"/>
</clipPath>
</defs>
</svg>
