<svg width="100%" height="100%" viewBox="0 0 216 48" fill="none" xmlns="http://www.w3.org/2000/svg">
<path d="M66.3003 34.4033L62.4285 27.9564H59.5453V34.4033H55.7559V15.8322H63.4445C65.2202 15.8322 66.7305 16.4335 67.9753 17.6362C69.2201 18.8389 69.8426 20.2893 69.8426 21.9872C69.8426 23.1368 69.5039 24.2069 68.8266 25.1973C68.1492 26.1701 67.2522 26.9041 66.1355 27.3993L70.3917 34.4033H66.3003ZM59.5453 19.2546V24.7463H63.4445C64.1584 24.7463 64.7717 24.481 65.2843 23.9504C65.7969 23.4021 66.0532 22.7477 66.0532 21.9872C66.0532 21.2266 65.7969 20.5811 65.2843 20.0505C64.7717 19.5199 64.1584 19.2546 63.4445 19.2546H59.5453Z" fill="#0E1328"></path>
<path d="M81.3719 21.1382H84.9141V34.4033H81.3719V32.838C80.3101 34.1291 78.8181 34.7747 76.896 34.7747C75.0654 34.7747 73.491 34.1026 72.173 32.7584C70.8732 31.3965 70.2233 29.734 70.2233 27.7707C70.2233 25.8075 70.8732 24.1538 72.173 22.8096C73.491 21.4477 75.0654 20.7668 76.896 20.7668C78.8181 20.7668 80.3101 21.4124 81.3719 22.7035V21.1382ZM74.8365 30.4768C75.5505 31.1666 76.4566 31.5115 77.555 31.5115C78.6534 31.5115 79.5595 31.1666 80.2735 30.4768C81.0057 29.7693 81.3719 28.8673 81.3719 27.7707C81.3719 26.6742 81.0057 25.781 80.2735 25.0912C79.5595 24.3837 78.6534 24.03 77.555 24.03C76.4566 24.03 75.5505 24.3837 74.8365 25.0912C74.1226 25.781 73.7656 26.6742 73.7656 27.7707C73.7656 28.8673 74.1226 29.7693 74.8365 30.4768Z" fill="#0E1328"></path>
<path d="M95.2932 20.7668C97.1421 20.7668 98.7164 21.4477 100.016 22.8096C101.334 24.1538 101.993 25.8075 101.993 27.7707C101.993 29.734 101.334 31.3965 100.016 32.7584C98.7164 34.1026 97.1421 34.7747 95.2932 34.7747C93.371 34.7747 91.8882 34.1291 90.8447 32.838V39.7093H87.3025V21.1382H90.8447V22.7035C91.8882 21.4124 93.371 20.7668 95.2932 20.7668ZM91.9157 30.4768C92.6296 31.1666 93.5358 31.5115 94.6341 31.5115C95.7325 31.5115 96.6387 31.1666 97.3526 30.4768C98.0849 29.7693 98.451 28.8673 98.451 27.7707C98.451 26.6742 98.0849 25.781 97.3526 25.0912C96.6387 24.3837 95.7325 24.03 94.6341 24.03C93.5358 24.03 92.6296 24.3837 91.9157 25.0912C91.2017 25.781 90.8447 26.6742 90.8447 27.7707C90.8447 28.8673 91.2017 29.7693 91.9157 30.4768Z" fill="#0E1328"></path>
<path d="M105.425 19.5464C104.839 19.5464 104.327 19.343 103.887 18.9362C103.466 18.5117 103.256 18.0165 103.256 17.4505C103.256 16.8846 103.466 16.3893 103.887 15.9648C104.327 15.5404 104.839 15.3281 105.425 15.3281C106.029 15.3281 106.542 15.5404 106.963 15.9648C107.402 16.3893 107.622 16.8846 107.622 17.4505C107.622 18.0165 107.402 18.5117 106.963 18.9362C106.542 19.343 106.029 19.5464 105.425 19.5464ZM103.668 34.4033V21.1382H107.21V34.4033H103.668Z" fill="#0E1328"></path>
<path d="M120.035 15.8322H123.578V34.4033H120.035V32.838C118.992 34.1291 117.509 34.7747 115.587 34.7747C113.738 34.7747 112.155 34.1026 110.836 32.7584C109.537 31.3965 108.887 29.734 108.887 27.7707C108.887 25.8075 109.537 24.1538 110.836 22.8096C112.155 21.4477 113.738 20.7668 115.587 20.7668C117.509 20.7668 118.992 21.4124 120.035 22.7035V15.8322ZM113.5 30.4768C114.232 31.1666 115.148 31.5115 116.246 31.5115C117.344 31.5115 118.251 31.1666 118.964 30.4768C119.678 29.7693 120.035 28.8673 120.035 27.7707C120.035 26.6742 119.678 25.781 118.964 25.0912C118.251 24.3837 117.344 24.03 116.246 24.03C115.148 24.03 114.232 24.3837 113.5 25.0912C112.786 25.781 112.429 26.6742 112.429 27.7707C112.429 28.8673 112.786 29.7693 113.5 30.4768Z" fill="#0E1328"></path>
<path d="M135.275 34.7747C132.382 34.7747 129.993 33.8461 128.108 31.989C126.222 30.1319 125.28 27.8415 125.28 25.1177C125.28 22.3763 126.222 20.0859 128.108 18.2464C129.993 16.3893 132.382 15.4608 135.275 15.4608C137.014 15.4608 138.616 15.8587 140.08 16.6546C141.563 17.4328 142.716 18.494 143.54 19.8382L140.272 21.6688C139.796 20.8375 139.119 20.192 138.24 19.7321C137.362 19.2546 136.373 19.0158 135.275 19.0158C133.408 19.0158 131.897 19.5818 130.744 20.7137C129.609 21.8457 129.041 23.3137 129.041 25.1177C129.041 26.9041 129.609 28.3632 130.744 29.4952C131.897 30.6271 133.408 31.1931 135.275 31.1931C136.373 31.1931 137.362 30.9632 138.24 30.5033C139.137 30.0258 139.815 29.3802 140.272 28.5666L143.54 30.3972C142.716 31.7414 141.572 32.8114 140.108 33.6074C138.643 34.3856 137.032 34.7747 135.275 34.7747Z" fill="#0E1328"></path>
<path d="M155.394 21.1382H158.937V34.4033H155.394V32.838C154.333 34.1291 152.841 34.7747 150.918 34.7747C149.088 34.7747 147.514 34.1026 146.195 32.7584C144.896 31.3965 144.246 29.734 144.246 27.7707C144.246 25.8075 144.896 24.1538 146.195 22.8096C147.514 21.4477 149.088 20.7668 150.918 20.7668C152.841 20.7668 154.333 21.4124 155.394 22.7035V21.1382ZM148.859 30.4768C149.573 31.1666 150.479 31.5115 151.578 31.5115C152.676 31.5115 153.582 31.1666 154.296 30.4768C155.028 29.7693 155.394 28.8673 155.394 27.7707C155.394 26.6742 155.028 25.781 154.296 25.0912C153.582 24.3837 152.676 24.03 151.578 24.03C150.479 24.03 149.573 24.3837 148.859 25.0912C148.145 25.781 147.788 26.6742 147.788 27.7707C147.788 28.8673 148.145 29.7693 148.859 30.4768Z" fill="#0E1328"></path>
<path d="M168.959 20.7668C170.46 20.7668 171.695 21.2532 172.666 22.2259C173.654 23.1987 174.149 24.5429 174.149 26.2585V34.4033H170.606V26.683C170.606 25.7987 170.359 25.1266 169.865 24.6667C169.371 24.1892 168.712 23.9504 167.888 23.9504C166.972 23.9504 166.24 24.2245 165.691 24.7728C165.142 25.3211 164.867 26.1436 164.867 27.2401V34.4033H161.325V21.1382H164.867V22.6239C165.728 21.3858 167.091 20.7668 168.959 20.7668Z" fill="#0E1328"></path>
<path d="M185.142 21.1382H189.041L183.824 34.4033H179.788L174.57 21.1382H178.47L181.792 30.4237L185.142 21.1382Z" fill="#0E1328"></path>
<path d="M199.824 21.1382H203.366V34.4033H199.824V32.838C198.762 34.1291 197.27 34.7747 195.348 34.7747C193.517 34.7747 191.943 34.1026 190.625 32.7584C189.325 31.3965 188.675 29.734 188.675 27.7707C188.675 25.8075 189.325 24.1538 190.625 22.8096C191.943 21.4477 193.517 20.7668 195.348 20.7668C197.27 20.7668 198.762 21.4124 199.824 22.7035V21.1382ZM193.289 30.4768C194.003 31.1666 194.909 31.5115 196.007 31.5115C197.105 31.5115 198.012 31.1666 198.726 30.4768C199.458 29.7693 199.824 28.8673 199.824 27.7707C199.824 26.6742 199.458 25.781 198.726 25.0912C198.012 24.3837 197.105 24.03 196.007 24.03C194.909 24.03 194.003 24.3837 193.289 25.0912C192.575 25.781 192.218 26.6742 192.218 27.7707C192.218 28.8673 192.575 29.7693 193.289 30.4768Z" fill="#0E1328"></path>
<path d="M208.915 24.9055C208.915 25.2592 209.153 25.5511 209.629 25.781C210.123 25.9932 210.718 26.1878 211.414 26.3646C212.109 26.5238 212.805 26.7361 213.501 27.0014C214.196 27.249 214.782 27.6735 215.258 28.2748C215.752 28.8762 215.999 29.6278 215.999 30.5299C215.999 31.8917 215.469 32.9441 214.407 33.6869C213.363 34.4121 212.055 34.7747 210.48 34.7747C207.661 34.7747 205.739 33.7223 204.714 31.6176L207.789 29.9462C208.192 31.0958 209.089 31.6707 210.48 31.6707C211.743 31.6707 212.375 31.2904 212.375 30.5299C212.375 30.1761 212.128 29.8931 211.633 29.6809C211.157 29.451 210.572 29.2476 209.876 29.0707C209.18 28.8938 208.485 28.6728 207.789 28.4075C207.093 28.1422 206.499 27.7265 206.004 27.1605C205.528 26.5769 205.29 25.8517 205.29 24.9851C205.29 23.6763 205.785 22.6504 206.773 21.9076C207.78 21.1471 209.025 20.7668 210.508 20.7668C211.624 20.7668 212.64 21.0144 213.556 21.5096C214.471 21.9872 215.194 22.677 215.725 23.579L212.704 25.1708C212.265 24.2688 211.533 23.8178 210.508 23.8178C210.05 23.8178 209.666 23.915 209.354 24.1096C209.061 24.3041 208.915 24.5694 208.915 24.9055Z" fill="#0E1328"></path>
<path fill-rule="evenodd" clip-rule="evenodd" d="M34.4441 6.8617C27.5494 7.5494 23.8038 11.4041 21.1084 15.4775L19.4786 17.9406L12.2266 11.2733L15.6372 7.58252L18.629 10.3331C21.7853 6.36449 26.4429 2.6153 33.9434 1.86719L34.4441 6.8617Z" fill="#FF5C00"></path>
<path fill-rule="evenodd" clip-rule="evenodd" d="M43.5444 19.2017C38.185 14.8251 32.8072 14.9091 28.0166 15.8884L25.1199 16.4806L24.7188 6.65118L29.7438 6.44694L29.9093 10.502C34.9513 9.92189 40.8989 10.5558 46.7291 15.3168L43.5444 19.2017Z" fill="#FF5C00"></path>
<path fill-rule="evenodd" clip-rule="evenodd" d="M6.87847 13.6442C7.56794 20.5212 11.4326 24.2572 15.5165 26.9456L17.9859 28.5713L11.3014 35.8047L7.60115 32.4028L10.3588 29.4187C6.37998 26.2705 2.62114 21.6248 1.87109 14.1437L6.87847 13.6442Z" fill="#FF5C00"></path>
<path fill-rule="evenodd" clip-rule="evenodd" d="M19.2449 4.55317C14.8585 9.90053 14.9426 15.2663 15.9242 20.0461L16.5177 22.9363L6.66614 23.3365L6.46143 18.3228L10.5256 18.1577C9.9442 13.127 10.5795 7.19282 15.3513 1.37568L19.2449 4.55317Z" fill="#FF5C00"></path>
<path fill-rule="evenodd" clip-rule="evenodd" d="M13.6789 41.1383C20.5737 40.4506 24.3192 36.5959 27.0146 32.5225L28.6444 30.0594L35.8965 36.7267L32.4858 40.4175L29.494 37.6669C26.3377 41.6355 21.6801 45.3847 14.1797 46.1328L13.6789 41.1383Z" fill="#FF5C00"></path>
<path fill-rule="evenodd" clip-rule="evenodd" d="M4.57465 28.8046C9.93579 33.1797 15.3153 33.0958 20.1075 32.1168L23.0052 31.5248L23.4064 41.351L18.3798 41.5552L18.2143 37.5015C13.1705 38.0813 7.2211 37.4477 1.38898 32.6882L4.57465 28.8046Z" fill="#FF5C00"></path>
<path fill-rule="evenodd" clip-rule="evenodd" d="M41.2465 34.348C40.5571 27.471 36.6924 23.735 32.6085 21.0465L30.1391 19.4209L36.8236 12.1875L40.5238 15.5894L37.7662 18.5735C41.745 21.7217 45.5039 26.3674 46.2539 33.8485L41.2465 34.348Z" fill="#FF5C00"></path>
<path fill-rule="evenodd" clip-rule="evenodd" d="M28.8782 43.439C33.2646 38.0917 33.1804 32.7259 32.1989 27.9461L31.6054 25.0558L41.4569 24.6557L41.6616 29.6694L37.5975 29.8344C38.1788 34.8652 37.5435 40.7994 32.7718 46.6165L28.8782 43.439Z" fill="#FF5C00"></path>
</svg>