<svg width="162" height="34" viewBox="0 0 162 34" fill="none" xmlns="http://www.w3.org/2000/svg">
<g clip-path="url(#clip0_39_931)">
<path d="M40.8882 24.1953L37.3611 8.73945C37.2085 8.06969 36.7653 7.51396 36.1469 7.21522L21.8635 0.336133C21.2435 0.0389974 20.5336 0.0389974 19.9153 0.336133L5.63187 7.21522C5.01191 7.51396 4.57022 8.06969 4.41603 8.73945L0.888949 24.1953C0.736366 24.8651 0.893767 25.5573 1.32261 26.0938L6.99709 33.209C7.52872 33.8755 8.53095 33.9044 9.10113 33.2716L2.57861 25.0931C2.45654 24.939 2.41157 24.743 2.45493 24.5519L5.98201 9.09601C6.02538 8.90488 6.15226 8.74748 6.32894 8.66235L20.6123 1.78326C20.7874 1.69974 20.9898 1.69974 21.1664 1.78326L35.4498 8.66235C35.6265 8.74748 35.7518 8.90488 35.7951 9.09601L39.3238 24.5519C39.3672 24.743 39.3222 24.9406 39.2002 25.0931L32.6776 33.2716C33.2478 33.906 34.25 33.8755 34.7817 33.209L40.4562 26.0938C40.8834 25.5573 41.0424 24.8651 40.8882 24.1953Z" fill="#EF5454"/>
<path d="M37.3468 23.2839L34.4927 10.7817C34.3497 10.1537 33.9353 9.63496 33.3555 9.3555L21.801 3.79183C21.2211 3.51237 20.5562 3.51237 19.9764 3.79023L8.42344 9.3555C7.84362 9.63496 7.42924 10.1537 7.28469 10.7817L4.43218 23.2839C4.28924 23.9119 4.437 24.5592 4.83854 25.0619L10.3107 31.9249L11.398 30.7123L6.09293 24.0613C5.99817 23.9424 5.96444 23.7899 5.99817 23.6421L8.85067 11.1383C8.8844 10.9905 8.98238 10.8685 9.1189 10.8026L20.6735 5.23736C20.81 5.17151 20.9674 5.17151 21.1039 5.23736L32.6585 10.8026C32.795 10.8685 32.893 10.9905 32.9267 11.1383L35.7808 23.6421C35.8145 23.7899 35.7792 23.9424 35.6844 24.0613L30.3793 30.7139L31.4683 31.9249L36.9404 25.0619C37.342 24.5592 37.4897 23.9119 37.3468 23.2839Z" fill="#BF5157"/>
<path d="M33.8034 22.3751L31.6239 12.825C31.4905 12.2404 31.1035 11.757 30.5638 11.4968L21.7381 7.24533C21.1984 6.98674 20.5801 6.98513 20.0388 7.24533L11.213 11.4968C10.6734 11.757 10.2879 12.2404 10.153 12.825L7.97347 22.3751C7.84016 22.9598 7.97829 23.5637 8.35252 24.0327L12.6072 29.3667L13.6961 28.1556L9.60852 23.0305C9.54106 22.9469 9.51697 22.8377 9.53945 22.7317L11.719 13.1832C11.7431 13.0772 11.8137 12.9905 11.9101 12.9439L20.7358 8.69246C20.784 8.66997 20.837 8.65873 20.8884 8.65873C20.9414 8.65873 20.9928 8.66997 21.041 8.69246L29.8667 12.9439C29.9647 12.9905 30.0338 13.0772 30.0579 13.1832L32.2374 22.7317C32.2615 22.8377 32.2374 22.9469 32.1699 23.0305L28.0823 28.1556L29.1697 29.3683L33.4259 24.0327C33.7986 23.5637 33.9367 22.9598 33.8034 22.3751Z" fill="#8F4E59"/>
<path d="M30.2604 21.4662L28.7554 14.8682C28.6317 14.3269 28.2736 13.8772 27.7741 13.6362L21.6772 10.7002C21.176 10.4593 20.6027 10.4593 20.1015 10.7002L14.0046 13.6362C13.5051 13.8772 13.147 14.3269 13.0233 14.8682L11.5167 21.4662C11.3931 22.0074 11.5215 22.5664 11.8669 23.0016L14.9041 26.8114L15.993 25.5988L13.1229 21.9994C13.0827 21.9496 13.0683 21.8854 13.0827 21.8227L14.5893 15.2263C14.6021 15.1637 14.6439 15.1123 14.7017 15.0834L20.7986 12.1474C20.8275 12.1345 20.858 12.1265 20.8885 12.1265C20.9207 12.1265 20.9512 12.1345 20.9801 12.1474L27.077 15.0834C27.1348 15.1123 27.175 15.1637 27.1894 15.2263L28.6944 21.8227C28.7088 21.8854 28.6944 21.9496 28.6542 21.9994L25.7841 25.5988L26.873 26.8114L29.9102 23.0016C30.2571 22.5664 30.384 22.0074 30.2604 21.4662Z" fill="#604A5C"/>
<path d="M26.7191 20.555L25.8872 16.9123C25.7731 16.4127 25.4439 15.9984 24.9829 15.7767L21.6148 14.1545C21.1539 13.9329 20.6255 13.9329 20.1645 14.1545L16.7964 15.7767C16.3355 15.9984 16.0062 16.4127 15.8922 16.9106L15.0602 20.555C14.9462 21.0545 15.0634 21.5701 15.383 21.97L17.2028 24.2523L18.2917 23.0397L16.639 20.9694C16.6262 20.9533 16.6214 20.9324 16.6262 20.9131L17.4565 17.2688C17.4614 17.2495 17.4742 17.2335 17.4935 17.2238L20.86 15.6016C20.8696 15.5984 20.8792 15.5952 20.8889 15.5952C20.8985 15.5952 20.9081 15.5984 20.9178 15.6016L24.2858 17.2238C24.3035 17.2335 24.3164 17.2495 24.3212 17.2688L25.1532 20.9131C25.158 20.9324 25.1532 20.9533 25.1403 20.9694L23.4876 23.0413L24.575 24.2523L26.3963 21.97C26.7143 21.5701 26.8332 21.0545 26.7191 20.555Z" fill="#30475E"/>
<path d="M105.69 22.3178L110.942 9.63281H112.204L117.294 22.3178H115.651L114.1 18.4383H108.886L107.28 22.3178H105.69ZM109.445 17.0314H113.541L111.556 11.9418L109.445 17.0314Z" fill="#6B6B6B"/>
<path d="M117.223 16.0201C117.223 12.4114 119.84 9.63281 123.287 9.63281C125.108 9.63281 126.751 10.4278 127.815 11.745L127.002 12.881C126.083 11.7626 124.711 11.0767 123.304 11.0767C120.67 11.0767 118.704 13.2415 118.704 16.0201C118.704 18.8163 120.67 20.946 123.304 20.946C124.512 20.946 125.56 20.4764 126.426 19.6464L127.472 20.4589C126.624 21.669 124.783 22.4074 123.287 22.4074C119.84 22.4074 117.223 19.6288 117.223 16.0201Z" fill="#6B6B6B"/>
<path d="M138.921 16.0201C138.921 12.4114 141.538 9.63281 144.985 9.63281C148.412 9.63281 151.029 12.4114 151.029 16.0201C151.029 19.6288 148.412 22.4074 144.985 22.4074C141.536 22.4074 138.921 19.6288 138.921 16.0201ZM149.62 16.0201C149.62 13.187 147.635 11.0572 145 11.0572C142.329 11.0572 140.345 13.187 140.345 16.0201C140.345 18.8533 142.331 20.9831 145 20.9831C147.654 20.9831 149.62 18.8358 149.62 16.0201Z" fill="#6B6B6B"/>
<path d="M159.7 22.3178L157.608 17.1756H154.215V22.3178H152.736V9.63281H157.031C159.971 9.63281 161.651 10.8429 161.651 13.4032C161.651 15.1725 160.749 16.4527 159.143 16.9223L161.38 22.3178H159.7ZM154.215 15.7318H157.409C159.268 15.7318 160.115 14.9738 160.115 13.4032C160.115 11.7431 159.231 11.0572 157.029 11.0572H154.213V15.7318H154.215Z" fill="#6B6B6B"/>
<path d="M129.194 9.63281L128.521 11.0221H133.132V22.3178H134.593V11.0221H138.545L139.215 9.63281H129.194Z" fill="#6B6B6B"/>
<path d="M46.0361 20.0415L46.9929 19.1394C48.275 20.5462 49.374 21.0334 50.7652 20.9807C52.3884 20.9262 53.5088 20.024 53.4893 18.7243C53.4347 17.3701 52.4254 16.7037 50.6211 16.2711C47.7703 15.5677 46.5428 14.8097 46.5428 12.9878C46.5428 11.0744 48.1484 9.72207 50.169 9.63244C52.0279 9.54281 53.5984 10.2638 54.6799 11.7447L53.5965 12.6468C52.5326 11.4193 51.3595 10.9867 50.2586 11.0412C48.9784 11.0958 47.9496 11.8713 47.9496 12.9898C47.9496 14.0361 48.7446 14.2719 51.1803 14.9208C53.5088 15.4625 54.8981 16.7622 54.9507 18.7107C55.0053 20.895 53.2009 22.3369 50.7828 22.409C48.8693 22.4772 47.0474 21.575 46.0361 20.0415ZM56.1958 16.0178C56.1958 12.4091 58.8127 9.63049 62.2597 9.63049C64.0816 9.63049 65.7242 10.4255 66.7881 11.7427L65.9756 12.8787C65.0558 11.7602 63.6841 11.0744 62.2772 11.0744C59.6428 11.0744 57.6767 13.2392 57.6767 16.0178C57.6767 18.814 59.6428 20.9437 62.2772 20.9437C63.4853 20.9437 64.5336 20.4741 65.3988 19.644L66.4452 20.4566C65.5975 21.6666 63.7562 22.4051 62.2597 22.4051C58.8127 22.4051 56.1958 19.6265 56.1958 16.0178ZM67.4564 22.3155L72.7078 9.63049H73.9704L79.06 22.3155H77.4174L75.8664 18.436H70.6521L69.0465 22.3155H67.4564ZM71.2093 17.0291H75.3052L73.3196 11.9395L71.2093 17.0291ZM82.3414 20.9087V9.63049H80.88V22.3155H88.4091L89.0892 20.9087H82.3414ZM92.3491 20.9087V16.4699H96.5579L97.238 15.063H92.3491V11.0393H97.9823L98.6623 9.63244H90.8857V22.3174H97.9706L98.6506 20.9106H92.3491V20.9087Z" fill="#EF5454"/>
<path d="M100.438 9.63281V22.3178H101.901V16.4722H106.104L106.784 15.0634H101.901V11.0397H107.474L108.154 9.63281H100.438Z" fill="#6B6B6B"/>
<path d="M55.1601 26.1367H55.5985L56.1266 28.0814L57.3366 26.1367H57.7711L57.3327 28.6172H56.9274L57.2275 26.9181L56.1714 28.6172H55.8889L55.429 26.9181L55.1289 28.6172H54.7217L55.1601 26.1367Z" fill="#6B6B6B"/>
<path d="M60.0102 28.6444C59.375 28.6444 58.9541 28.2118 58.9541 27.5981C58.9541 26.7387 59.5815 26.1055 60.4272 26.1055C61.0702 26.1055 61.4872 26.538 61.4872 27.1479C61.4872 28.0111 60.8637 28.6444 60.0102 28.6444ZM60.0667 28.2761C60.6669 28.2761 61.0663 27.7695 61.0663 27.1772C61.0663 26.7446 60.8091 26.4776 60.3707 26.4776C59.7705 26.4776 59.375 26.9765 59.375 27.5727C59.375 28.0053 59.6322 28.2761 60.0667 28.2761Z" fill="#6B6B6B"/>
<path d="M62.9756 26.1406H63.4101L63.7784 28.2002L64.8813 26.1406H65.3138L63.944 28.6211H63.4725L62.9756 26.1406Z" fill="#6B6B6B"/>
<path d="M66.58 26.1367H66.9873L66.5488 28.6172H66.1416L66.58 26.1367Z" fill="#6B6B6B"/>
<path d="M70.6299 26.1328L70.1915 28.6172H69.7843L68.8879 26.7641L68.5606 28.6172H68.1533L68.5917 26.1328H68.999L69.8992 27.982L70.2246 26.1328H70.6299Z" fill="#6B6B6B"/>
<path d="M73.3712 26.1055C73.8895 26.1055 74.2929 26.3666 74.3962 26.8518H73.9071C73.8174 26.6023 73.6031 26.4776 73.3069 26.4776C72.8139 26.4776 72.397 26.8264 72.2995 27.374C72.204 27.9196 72.4963 28.2742 72.9893 28.2742C73.4394 28.2742 73.7746 27.9995 73.9071 27.5786H72.9757L73.0322 27.261H74.4001L74.3435 27.5786C74.1643 28.1534 73.5934 28.6425 72.927 28.6425C72.2274 28.6425 71.752 28.1222 71.8845 27.3759C72.015 26.6316 72.6717 26.1055 73.3712 26.1055Z" fill="#6B6B6B"/>
<path d="M78.205 26.1367H79.6645L79.608 26.4543H78.5558L78.4233 27.2065H79.2436L79.1871 27.5202H78.3668L78.1738 28.6153H77.7666L78.205 26.1367Z" fill="#6B6B6B"/>
<path d="M81.7577 26.1367C82.3462 26.1367 82.5741 26.4758 82.504 26.8791C82.4533 27.1675 82.239 27.4851 81.8045 27.5884L82.237 28.6172H81.7519L81.3602 27.6254H81.0465L80.8711 28.6172H80.4639L80.9023 26.1367H81.7577V26.1367ZM81.6992 26.4543H81.2491L81.0991 27.3039H81.5492C81.8668 27.3039 82.0422 27.1285 82.0851 26.8791C82.1318 26.6219 82.0169 26.4543 81.6992 26.4543Z" fill="#6B6B6B"/>
<path d="M84.8579 28.6444C84.2226 28.6444 83.8018 28.2118 83.8018 27.5981C83.8018 26.7387 84.4292 26.1055 85.2749 26.1055C85.9179 26.1055 86.3349 26.538 86.3349 27.1479C86.3368 28.0111 85.7113 28.6444 84.8579 28.6444ZM84.9163 28.2761C85.5165 28.2761 85.9159 27.7695 85.9159 27.1772C85.9159 26.7446 85.6587 26.4776 85.2203 26.4776C84.6201 26.4776 84.2246 26.9765 84.2246 27.5727C84.2226 28.0053 84.4799 28.2761 84.9163 28.2761Z" fill="#6B6B6B"/>
<path d="M87.9521 26.1406H88.3905L88.9186 28.0853L90.1286 26.1406H90.5631L90.1247 28.6211H89.7175L90.0175 26.922L88.9614 28.6211H88.6789L88.219 26.922L87.919 28.6211H87.5117L87.9521 26.1406Z" fill="#6B6B6B"/>
<path d="M94.7717 28.6425C94.2904 28.6425 93.9143 28.3853 93.9728 27.9332H94.3761C94.3586 28.1436 94.5086 28.3151 94.7892 28.3151C95.0757 28.3151 95.2608 28.1963 95.2608 27.9624C95.2608 27.4694 94.1228 27.6097 94.1053 26.8557C94.0936 26.3919 94.4755 26.1055 94.9899 26.1055C95.5044 26.1055 95.8103 26.3724 95.7888 26.7797H95.3602C95.3777 26.5946 95.2432 26.4367 94.9705 26.4367C94.6996 26.4367 94.5164 26.5692 94.5164 26.7855C94.5164 27.261 95.6797 27.1752 95.6797 27.9274C95.6817 28.3463 95.3173 28.6425 94.7717 28.6425Z" fill="#6B6B6B"/>
<path d="M97.4451 26.1367H97.8524L97.5737 27.7111C97.5055 28.0969 97.6906 28.2782 98.0336 28.2782C98.3804 28.2782 98.6298 28.0969 98.698 27.7111L98.9767 26.1367H99.3839L99.1053 27.7111C98.9942 28.3425 98.4837 28.6425 97.9673 28.6425C97.4471 28.6425 97.0574 28.3425 97.1684 27.7111L97.4451 26.1367Z" fill="#6B6B6B"/>
<path d="M102.044 26.1055C102.562 26.1055 102.966 26.3666 103.069 26.8518H102.58C102.49 26.6023 102.276 26.4776 101.98 26.4776C101.487 26.4776 101.07 26.8264 100.972 27.374C100.877 27.9196 101.169 28.2742 101.662 28.2742C101.958 28.2742 102.219 28.1495 102.395 27.9001H102.884C102.609 28.3853 102.116 28.6425 101.6 28.6425C100.9 28.6425 100.425 28.1222 100.557 27.3759C100.688 26.6316 101.345 26.1055 102.044 26.1055Z" fill="#6B6B6B"/>
<path d="M105.803 26.1055C106.321 26.1055 106.725 26.3666 106.828 26.8518H106.339C106.249 26.6023 106.035 26.4776 105.739 26.4776C105.246 26.4776 104.829 26.8264 104.731 27.374C104.636 27.9196 104.928 28.2742 105.421 28.2742C105.717 28.2742 105.978 28.1495 106.154 27.9001H106.643C106.368 28.3853 105.875 28.6425 105.359 28.6425C104.659 28.6425 104.184 28.1222 104.316 27.3759C104.447 26.6316 105.103 26.1055 105.803 26.1055Z" fill="#6B6B6B"/>
<path d="M109.738 26.4524H108.774L108.641 27.2045H109.498L109.444 27.5182H108.586L108.448 28.2996H109.413L109.356 28.6172H107.986L108.425 26.1328H109.795L109.738 26.4524Z" fill="#6B6B6B"/>
<path d="M111.755 28.6425C111.274 28.6425 110.898 28.3853 110.956 27.9332H111.36C111.342 28.1436 111.492 28.3151 111.773 28.3151C112.059 28.3151 112.244 28.1963 112.244 27.9624C112.244 27.4694 111.106 27.6097 111.089 26.8557C111.079 26.3919 111.459 26.1055 111.973 26.1055C112.488 26.1055 112.794 26.3724 112.772 26.7797H112.344C112.361 26.5946 112.227 26.4367 111.954 26.4367C111.683 26.4367 111.5 26.5692 111.5 26.7855C111.5 27.261 112.663 27.1752 112.663 27.9274C112.665 28.3463 112.301 28.6425 111.755 28.6425Z" fill="#6B6B6B"/>
<path d="M114.891 28.6464C114.41 28.6464 114.033 28.3892 114.092 27.9371H114.495C114.478 28.1476 114.628 28.319 114.908 28.319C115.195 28.319 115.38 28.2002 115.38 27.9663C115.38 27.4734 114.242 27.6137 114.224 26.8596C114.213 26.3958 114.595 26.1094 115.109 26.1094C115.623 26.1094 115.929 26.3763 115.908 26.7836H115.479C115.497 26.5985 115.362 26.4406 115.09 26.4406C114.819 26.4406 114.636 26.5731 114.636 26.7894C114.636 27.2649 115.799 27.1791 115.799 27.9313C115.803 28.3502 115.438 28.6464 114.891 28.6464Z" fill="#6B6B6B"/>
<path d="M117.567 26.1406H119.027L118.97 26.4582H117.918L117.786 27.2104H118.606L118.549 27.5241H117.729L117.536 28.6192H117.129L117.567 26.1406Z" fill="#6B6B6B"/>
<path d="M120.401 26.1406H120.808L120.53 27.715C120.462 28.1009 120.647 28.2821 120.99 28.2821C121.336 28.2821 121.586 28.1009 121.654 27.715L121.933 26.1406H122.34L122.061 27.715C121.95 28.3464 121.44 28.6464 120.923 28.6464C120.403 28.6464 120.013 28.3464 120.124 27.715L120.401 26.1406Z" fill="#6B6B6B"/>
<path d="M124.345 26.1367L123.963 28.3074H124.801L124.744 28.6172H123.499L123.937 26.1367H124.345V26.1367Z" fill="#6B6B6B"/>
<path d="M128.606 26.1367H130.337L130.28 26.4543H129.62L129.238 28.6172H128.83L129.212 26.4543H128.548L128.606 26.1367Z" fill="#6B6B6B"/>
<path d="M132.294 28.6444C131.659 28.6444 131.238 28.2118 131.238 27.5981C131.238 26.7387 131.866 26.1055 132.711 26.1055C133.354 26.1055 133.771 26.538 133.771 27.1479C133.773 28.0111 133.148 28.6444 132.294 28.6444ZM132.353 28.2761C132.953 28.2761 133.352 27.7695 133.352 27.1772C133.352 26.7446 133.095 26.4776 132.657 26.4776C132.057 26.4776 131.661 26.9765 131.661 27.5727C131.659 28.0053 131.916 28.2761 132.353 28.2761Z" fill="#6B6B6B"/>
<path d="M138.088 28.6444C137.57 28.6444 137.178 28.3833 137.239 27.902H137.749C137.732 28.0988 137.86 28.2449 138.106 28.2449C138.341 28.2449 138.497 28.1456 138.497 27.9488C138.497 27.4986 137.391 27.6175 137.377 26.8673C137.369 26.386 137.767 26.0938 138.301 26.0938C138.832 26.0938 139.168 26.3724 139.136 26.805H138.604C138.626 26.6335 138.507 26.4971 138.275 26.4971C138.053 26.4971 137.901 26.6082 137.901 26.7894C137.901 27.2259 139.025 27.1615 139.025 27.9059C139.025 28.3326 138.659 28.6444 138.088 28.6444Z" fill="#EF5454"/>
<path d="M141.905 26.0938C142.459 26.0938 142.858 26.3899 142.936 26.9004H142.361C142.283 26.6725 142.09 26.5536 141.822 26.5536C141.383 26.5536 141.019 26.8712 140.933 27.3681C140.843 27.8611 141.097 28.1826 141.533 28.1826C141.8 28.1826 142.04 28.0657 142.198 27.8318H142.772C142.511 28.3463 142.013 28.6385 141.459 28.6385C140.738 28.6385 140.288 28.1144 140.421 27.3681C140.553 26.6218 141.188 26.0938 141.905 26.0938Z" fill="#EF5454"/>
<path d="M145.67 28.1437H144.674L144.428 28.6191H143.904L145.243 26.125H145.826L146.28 28.6191H145.752L145.67 28.1437ZM145.428 26.6979L144.879 27.754H145.607L145.428 26.6979Z" fill="#EF5454"/>
<path d="M148.626 26.127L148.254 28.2353H149.074L149.006 28.6172H147.681L148.123 26.125H148.626V26.127Z" fill="#EF5454"/>
<path d="M152.14 26.5167H151.195L151.08 27.1636H151.918L151.85 27.5494H151.012L150.895 28.2236H151.84L151.768 28.6191H150.318L150.761 26.125H152.206L152.14 26.5167Z" fill="#EF5454"/>
</g>
<defs>
<clipPath id="clip0_39_931">
<rect width="160.632" height="33.444" fill="white" transform="translate(0.899414 0.199219)"/>
</clipPath>
</defs>
</svg>
