<svg xmlns="http://www.w3.org/2000/svg" viewBox="0 0 371.5 49.51"><title>Semrush logo - Brandlogos.net</title><path d="M582.74,506.67c0-6.09-3.81-10.47-10.85-10.47H548.65V527.8h7.62V517h8.95L574,527.8h8.57V527L574,516.76C579.5,515.62,582.74,511.62,582.74,506.67Zm-11.81,3.81H556.27v-7.81h14.66c2.67,0,4.38,1.52,4.38,4C575.5,509.14,573.79,510.48,570.93,510.48Z" transform="translate(-326.25 -487.25)"/><path d="M697.75,496h-7v12H671.47V496h-7.62v31.61h7.62V515.24H690.7v12.38h7Z" transform="translate(-326.25 -487.25)"/><path d="M528.28,496l-8.38,26.47h-.38L511,496H497.43v31.61h7.24v-25.9H505l8.38,25.9H525l8.57-25.9H534v25.9h7.43V496Z" transform="translate(-326.25 -487.25)"/><path d="M445.45,509c-2.67-.19-7.62-.76-10.47-1-2.67-.19-4.19-1.14-4.19-2.86s1.71-3,8.19-3a39.17,39.17,0,0,1,15.8,3.43v-7c-4.57-2.28-9.71-3.24-16.19-3.24-8.95,0-15.23,3.81-15.23,10.09,0,5.33,3.62,8.38,11,9.14,2.67.38,7.24.76,10.28,1,3.43.19,4.38,1.33,4.38,2.86,0,2.09-2.48,3.43-8.38,3.43A35.2,35.2,0,0,1,423.74,517v7.24c3.62,2.48,9.71,4.38,16.76,4.38,9.71,0,16-3.81,16-10.47C456.49,513,453.26,509.72,445.45,509Z" transform="translate(-326.25 -487.25)"/><path d="M461.64,496v31.61H491v-6.47H468.87v-6.47h21.71v-6.47H468.87v-5.71H491V496Z" transform="translate(-326.25 -487.25)"/><path d="M648.05,509c-2.67-.19-7.62-.76-10.47-1-2.67-.19-4.19-1.14-4.19-2.86s1.71-3,8.19-3a36.25,36.25,0,0,1,15.8,3.43v-7c-4.57-2.28-9.71-3.24-16.19-3.24-8.95,0-15.23,3.81-15.23,10.09,0,5.33,3.62,8.38,11,9.14,2.67.38,7.24.76,10.28,1,3.43.19,4.38,1.33,4.38,2.86,0,2.09-2.48,3.43-8.38,3.43A35.2,35.2,0,0,1,626.34,517v7.24c3.62,2.48,9.71,4.38,16.76,4.38,9.71,0,16-3.81,16-10.47C659.1,513,655.67,509.72,648.05,509Z" transform="translate(-326.25 -487.25)"/><path d="M613.21,496v16.19c0,6.09-3.81,9.52-9.33,9.52-5.71,0-9.33-3.24-9.33-9.52V496h-7.62v15.42c0,11.42,7.24,17.14,16.95,17.14,9.52,0,16.76-5.52,16.76-16.76V496Z" transform="translate(-326.25 -487.25)"/><path d="M397.47,511.62c0,1.52-.76,1.71-2.67,1.71-2.09,0-2.48-.38-2.67-1.9-.38-4-3-7.43-7.62-7.62-1.33-.19-1.71-.57-1.71-2.48,0-1.71.19-2.48,1.52-2.48C391.94,499.05,397.47,505.34,397.47,511.62Zm11.23,0c0-11.81-8-24.37-26.66-24.37H345.29c-.76,0-1.33.38-1.33,1.14a1,1,0,0,0,.57,1,29.48,29.48,0,0,0,5.9,3.62,56.84,56.84,0,0,0,6.47,2.86q1.14.57,1.14,1.14c0,.57-.38,1.14-1.33,1.14H327.58c-1-.19-1.33.38-1.33,1a1.73,1.73,0,0,0,.57,1.33,57.4,57.4,0,0,0,11.62,8.95,158.45,158.45,0,0,0,15.61,8.57c.76.38,1.14.76,1.14,1.33s-.38,1-1.33,1H340.34c-.76,0-1.14.38-1.14,1a1.65,1.65,0,0,0,.57,1.14c3,2.86,8,5.71,14.47,8.57,8.76,3.62,17.52,5.9,27.42,5.9C400.51,536.75,408.7,522.66,408.7,511.62Zm-24.56,16.95a17,17,0,0,1-16.95-16.95,16.95,16.95,0,1,1,16.95,16.95Z" transform="translate(-326.25 -487.25)" style="fill:#ff642d"/></svg>