<svg width="49" height="40" viewBox="0 0 49 40" fill="none" xmlns="http://www.w3.org/2000/svg">
<path fill-rule="evenodd" clip-rule="evenodd" d="M2.78336 14.81V6.72777C2.78336 0.454582 6.26104 -0.000839495 12.1745 1.1575e-06V4.87915C9.39199 4.87915 8.34834 5.28575 8.34834 6.84899V14.8496C8.34834 14.9752 8.34893 15.1011 8.34952 15.2272C8.35765 16.9577 8.36588 18.7085 6.84443 19.7952C8.36589 20.8835 8.35765 22.6345 8.34952 24.3636C8.34893 24.4896 8.34834 24.6154 8.34834 24.7409V32.7432C8.34834 34.3081 9.39112 34.713 12.1745 34.713V39.5913C6.26104 39.5913 2.78336 39.1359 2.78336 32.8635V24.7821C2.78336 23.4554 2.78336 21.9671 0 21.9671V19.8382V19.8087V17.625C2.78336 17.625 2.78336 16.1359 2.78336 14.81ZM16.1517 11.9344C16.1517 9.55879 16.9115 7.73542 18.432 6.46597C19.9525 5.19483 22.2416 4.91872 23.9079 4.91872C24.4555 4.91872 28.2869 4.95996 28.2869 4.95996V10.1346C28.2869 10.1346 26.1411 10.1279 25.721 10.1279C24.866 10.1279 24.2066 10.3366 23.7455 10.7558C23.2843 11.1751 23.0538 11.7719 23.0538 12.5464V14.0684H27.3297V18.5275H23.0538V34.6869H16.1517V18.5275H12.9753V14.0684H16.1517V11.9344ZM40.5308 22.0136C43.2181 22.5086 45.2111 23.2502 46.5071 24.2343C47.8032 25.2184 48.4521 26.6124 48.4521 28.4147C48.4521 30.2709 47.5735 31.7971 45.8146 32.9976C44.0565 34.1988 41.7326 34.7991 38.8409 34.7991C35.8409 34.7991 33.4689 34.0886 31.7249 32.6651C29.9799 31.2432 29.1493 29.6547 29.2306 27.9004L29.2707 27.7868H35.5012C35.5283 28.7649 35.8436 29.4704 36.4479 29.9014C37.0514 30.3324 37.9108 30.5504 39.0234 30.5504C39.9466 30.5504 40.6452 30.3795 41.1203 30.0428C41.5954 29.7086 41.833 29.2271 41.833 28.6042C41.833 28.0991 41.5247 27.6436 40.9064 27.2429C40.2889 26.8431 39.1658 26.4845 37.537 26.1671C34.9711 25.6965 33.0366 24.9667 31.7336 23.975C30.4306 22.9851 29.779 21.6306 29.779 19.9158C29.779 18.1 30.593 16.5612 32.2218 15.2968C33.8515 14.0324 36.0567 13.3993 38.84 13.3993C41.7719 13.3993 44.1072 14.013 45.8451 15.2395C47.5831 16.4661 48.411 18.0478 48.329 19.9941L48.2879 20.1077H41.6094C41.6094 19.2954 41.3885 18.6792 40.9474 18.26C40.5064 17.8407 39.7972 17.6303 38.8199 17.6303C38.1003 17.6303 37.4959 17.8155 37.0077 18.1842C36.5195 18.5537 36.275 19.021 36.275 19.5934C36.275 20.1389 36.5571 20.6044 37.1204 20.9841C37.6828 21.3654 38.8208 21.7105 40.5308 22.0136Z" fill="black"/>
</svg>
