<svg width="725" height="120" viewBox="0 0 725 120" fill="none" xmlns="http://www.w3.org/2000/svg">
<path d="M531.784 104.647H548.31V10.3309H531.784V104.647Z" fill="#1D1D1B"/>
<path fill-rule="evenodd" clip-rule="evenodd" d="M440.693 103.681C444.286 105.17 447.939 105.905 451.653 105.905C457.786 105.905 463.271 104.415 468.119 101.447C472.956 98.4784 476.71 94.383 479.382 89.1706C482.044 83.918 483.38 77.9509 483.38 71.2996C483.38 64.6382 482.003 58.6813 479.261 53.4286C476.518 48.176 472.703 44.1007 467.815 41.2128C462.937 38.2846 457.381 36.8356 451.167 36.8758C447.21 36.8758 443.415 37.6406 439.792 39.16C436.159 40.6895 433.133 42.853 430.715 45.6604C430.533 45.8717 430.35 46.0931 430.168 46.3044V10.3914H413.581V104.647H430.047L430.016 95.842C430.441 96.3653 430.897 96.8684 431.383 97.3615C433.994 100.048 437.1 102.151 440.693 103.681ZM457.634 88.4562C454.932 90.0963 451.845 90.9215 448.374 90.9215C444.944 90.9215 441.796 90.0762 438.932 88.3958C436.068 86.665 433.791 84.3205 432.091 81.352C430.441 78.3836 429.612 75.0127 429.612 71.2392C429.571 67.4658 430.381 64.0949 432.03 61.1264C433.72 58.1178 436.007 55.7933 438.871 54.1431C441.735 52.4626 444.903 51.6375 448.374 51.6777C451.845 51.6375 454.932 52.4425 457.634 54.0827C460.377 55.6826 462.472 57.997 463.929 61.0057C465.427 63.9741 466.165 67.3853 466.165 71.2392C466.165 75.0932 465.416 78.5044 463.929 81.4728C462.482 84.4412 460.387 86.7657 457.634 88.4562Z" fill="#1D1D1B"/>
<path d="M221.826 16.0463H240.71L257.601 77.3973L275.574 16.0463H291.311L310.802 76.1597L327.024 16.0463H344.34L318.797 104.636H302.514L282.698 45.9118L264.503 104.636H248.037L221.826 16.0463Z" fill="#1D1D1B"/>
<path fill-rule="evenodd" clip-rule="evenodd" d="M372.231 106.206C365.653 106.247 359.722 104.798 354.43 101.869C349.187 98.901 345.048 94.7854 342.022 89.5328C339.037 84.2802 337.539 78.2829 337.539 71.5411C337.539 65.0005 339.077 59.0837 342.144 53.7908C345.21 48.498 349.37 44.3623 354.612 41.3939C359.854 38.4254 365.713 36.9362 372.17 36.9362C379.436 36.9362 385.792 38.5361 391.236 41.746C396.721 44.956 400.82 49.5143 403.522 55.4109C406.265 61.2673 407.256 67.989 406.487 75.5761H354.642C354.784 78.5949 355.543 81.3419 356.919 83.8173C358.457 86.5442 360.593 88.6674 363.335 90.1969C366.078 91.7264 369.144 92.4811 372.534 92.4811C375.115 92.4409 377.514 91.9981 379.74 91.1529C381.956 90.2674 383.839 89.09 385.367 87.6008C386.945 86.1115 388.048 84.4311 388.696 82.5494H406.012C404.959 87.1681 402.864 91.2736 399.717 94.886C396.57 98.4582 392.613 101.246 387.856 103.248C383.09 105.26 377.878 106.247 372.231 106.206ZM356.98 59.0233C356.008 60.7038 355.34 62.505 354.966 64.437H389.334C389.081 61.9918 388.322 59.7679 387.057 57.7555C385.599 55.3908 383.626 53.5594 381.126 52.2815C378.627 50.9532 375.803 50.2991 372.656 50.2991C369.306 50.2991 366.26 51.0639 363.517 52.5833C360.765 54.1028 358.589 56.2561 356.98 59.0233Z" fill="#1D1D1B"/>
<path d="M495.534 38.3147C495.534 32.9413 496.768 28.1616 499.228 23.9857C501.687 19.7695 505.138 16.4992 509.58 14.1748C514.064 11.8101 519.286 10.5825 525.256 10.502V25.1228C522.473 25.163 520.095 25.7467 518.112 26.8636C516.179 27.9503 514.681 29.5301 513.628 31.6231C512.667 33.5451 512.141 35.7689 512.07 38.3046H524.892V52.211H512.06V104.637H495.534V52.211H484.877V38.3046H495.534V38.3147Z" fill="#1D1D1B"/>
<path fill-rule="evenodd" clip-rule="evenodd" d="M590.319 106.086C583.579 106.086 577.547 104.617 572.224 101.688C566.941 98.7199 562.782 94.6244 559.756 89.4121C556.771 84.1595 555.273 78.2025 555.273 71.5411C555.273 64.8395 556.771 58.8624 559.756 53.6097C562.782 48.3169 566.941 44.2013 572.224 41.2731C577.547 38.3449 583.579 36.8758 590.319 36.8758C597.099 36.8758 603.151 38.3449 608.474 41.2731C613.838 44.2013 618.017 48.2967 621.003 53.5494C623.988 58.802 625.506 64.7992 625.547 71.5411C625.506 78.2025 623.988 84.1595 621.003 89.4121C618.058 94.6244 613.898 98.7199 608.535 101.688C603.171 104.627 597.099 106.086 590.319 106.086ZM590.319 90.9819C593.871 90.9819 597.018 90.1768 599.761 88.5769C602.503 86.9367 604.618 84.6425 606.116 81.7143C607.614 78.7458 608.353 75.3548 608.353 71.5411C608.353 67.6872 607.604 64.276 606.116 61.3075C604.618 58.3391 602.503 56.0549 599.761 54.4449C597.018 52.8047 593.871 51.9796 590.319 51.9796C586.807 51.9796 583.68 52.8047 580.937 54.4449C578.235 56.0549 576.13 58.3391 574.643 61.3075C573.145 64.276 572.426 67.6872 572.467 71.5411C572.467 75.3548 573.216 78.7458 574.703 81.7143C576.242 84.6425 578.336 86.9267 580.998 88.5769C583.7 90.1768 586.807 90.9819 590.319 90.9819Z" fill="#1D1D1B"/>
<path d="M643.409 38.3144H625.01L644.927 104.636H661.028L674.123 62.2732L688.261 104.636H704.119L724.096 38.3144H707.449L696.114 79.6008L683.596 38.3144H667.494L655.037 80.5064L643.409 38.3144Z" fill="#1D1D1B"/>
<path fill-rule="evenodd" clip-rule="evenodd" d="M191.907 0L130.671 119.019H73.1581L98.7822 69.6928H97.6285C76.4876 96.9822 44.9433 114.944 0 119.019V70.377C0 70.377 28.7512 68.6865 45.6517 51.0168H0.0101223V0H51.319V41.9606H52.4727L73.4415 0H112.242V41.6989H113.396L135.154 0H191.907Z" fill="#146EF5"/>
</svg>
